<?xml version="1.0" encoding="utf-8"?>
<!--Generator: Adobe Illustrator 16.0.0, SVG Export Plug-In . SVG Version: 6.00 Build 0)-->
<!DOCTYPE svg PUBLIC "-//W3C//DTD SVG 1.1//EN" "http://www.w3.org/Graphics/SVG/1.1/DTD/svg11.dtd">
<svg version="1.1" id="Layer_1" xmlns="http://www.w3.org/2000/svg" xmlns:xlink="http://www.w3.org/1999/xlink" x="0px" y="0px" width="170.09px" height="27.04px" viewBox="0 0 170.09 27.04" enable-background="new 0 0 170.09 27.04" xml:space="preserve">
    <g>
        <g>
            <circle cx="168.713" cy="10.274" r="1.374"/>
        </g>
        <g>
            <circle cx="163.752" cy="14.454" r="1.374"/>
        </g>
        <g>
            <circle cx="160.439" cy="10.806" r="1.374"/>
        </g>
        <g>
            <circle cx="155.897" cy="17.919" r="1.373"/>
        </g>
        <g>
            <path d="M150.748,17.046c-0.539,0.531-0.547,1.403-0.012,1.941c0.529,0.541,1.401,0.547,1.94,0.015
			c0.54-0.532,0.546-1.402,0.015-1.941C152.16,16.52,151.288,16.515,150.748,17.046z"/>
        </g>
        <g>
            <circle cx="147.26" cy="20.788" r="1.374"/>
        </g>
        <g>
            <circle cx="145.648" cy="10.873" r="1.374"/>
        </g>
        <g>
            <circle cx="143.474" cy="5.986" r="1.373"/>
        </g>
        <g>
            <path d="M136.598,19.783c-0.104,0.751,0.418,1.446,1.168,1.553c0.751,0.107,1.446-0.415,1.553-1.165
			c0.107-0.752-0.416-1.446-1.166-1.554C137.402,18.511,136.708,19.03,136.598,19.783z"/>
        </g>
        <g>
            <circle cx="137.01" cy="6.784" r="1.372"/>
        </g>
        <g>
            <circle cx="133.519" cy="9.651" r="1.372"/>
        </g>
        <g>
            <circle cx="130.061" cy="11.535" r="1.373"/>
        </g>
        <g>
            <circle cx="126.18" cy="4.42" r="1.374"/>
        </g>
        <g>
            <circle cx="122.538" cy="5.013" r="1.373"/>
        </g>
        <g>
            <circle cx="119.113" cy="8.31" r="1.374"/>
        </g>
        <g>
            <circle cx="115.322" cy="9.765" r="1.373"/>
        </g>
        <g>
            <path d="M112.526,13.663c-0.7,0.287-1.035,1.09-0.748,1.791c0.288,0.701,1.091,1.038,1.79,0.748
			c0.704-0.287,1.038-1.088,0.75-1.791C114.03,13.709,113.229,13.374,112.526,13.663z"/>
        </g>
        <g>
            <circle cx="108.285" cy="15.254" r="1.372"/>
        </g>
        <g>
            <circle cx="104.584" cy="8.299" r="1.373"/>
        </g>
        <g>
            <circle cx="99.83" cy="19.337" r="1.373"/>
        </g>
        <g>
            <circle cx="97.54" cy="6.979" r="1.373"/>
        </g>
        <g>
            <circle cx="91.149" cy="18.442" r="1.372"/>
        </g>
        <g>
            <circle cx="89.88" cy="4.139" r="1.373"/>
        </g>
        <g>
            <path d="M84.705,11.397c-0.078,0.755,0.471,1.428,1.226,1.506c0.753,0.079,1.428-0.47,1.503-1.224
			c0.08-0.756-0.469-1.429-1.222-1.507C85.456,10.094,84.783,10.644,84.705,11.397z"/>
        </g>
        <g>
            <path d="M82.04,10.37c-0.416,0.632-0.244,1.484,0.389,1.903c0.632,0.419,1.484,0.246,1.903-0.388
			c0.418-0.632,0.245-1.484-0.387-1.901C83.313,9.565,82.462,9.736,82.04,10.37z"/>
        </g>
        <g>
            <path d="M79.537,17.325c-0.617,0.439-0.763,1.296-0.325,1.916c0.438,0.618,1.297,0.763,1.914,0.325
			c0.619-0.442,0.765-1.299,0.325-1.915C81.013,17.031,80.155,16.887,79.537,17.325z"/>
        </g>
        <g>
            <circle cx="76.673" cy="9.94" r="1.372"/>
        </g>
        <g>
            <circle cx="73.357" cy="15.993" r="1.374"/>
        </g>
        <g>
            <circle cx="69.625" cy="16.352" r="1.373"/>
        </g>
        <g>
            <circle cx="67.067" cy="19.51" r="1.374"/>
        </g>
        <g>
            <circle cx="63.826" cy="23.584" r="1.373"/>
        </g>
        <g>
            <circle cx="61.105" cy="24.493" r="1.374"/>
        </g>
        <g>
            <circle cx="54.999" cy="16.396" r="1.373"/>
        </g>
        <g>
            <path d="M49.495,16.627c-0.02,0.758,0.582,1.386,1.342,1.404c0.757,0.018,1.386-0.583,1.402-1.34
			c0.02-0.758-0.582-1.388-1.341-1.405C50.142,15.267,49.513,15.868,49.495,16.627z"/>
        </g>
        <g>
            <circle cx="49.584" cy="25.666" r="1.373"/>
        </g>
        <g>
            <circle cx="43.125" cy="16.004" r="1.373"/>
        </g>
        <g>
            <circle cx="39.23" cy="11.76" r="1.374"/>
        </g>
        <g>
            <circle cx="29.877" cy="23.702" r="1.373"/>
        </g>
        <g>
            <circle cx="33.064" cy="12.904" r="1.373"/>
        </g>
        <g>
            <circle cx="22.745" cy="19.218" r="1.374"/>
        </g>
        <g>
            <path d="M24.672,6.627c-0.261,0.712,0.103,1.502,0.816,1.764c0.709,0.262,1.501-0.104,1.762-0.814
			c0.263-0.711-0.103-1.501-0.814-1.763C25.724,5.551,24.934,5.915,24.672,6.627z"/>
        </g>
        <g>
            <circle cx="21.089" cy="16.125" r="1.374"/>
        </g>
        <g>
            <circle cx="18.254" cy="10.745" r="1.375"/>
        </g>
        <g>
            <circle cx="14.856" cy="1.375" r="1.374"/>
        </g>
        <g>
            <circle cx="14.175" cy="10.009" r="1.373"/>
        </g>
        <g>
            <circle cx="9.104" cy="9.254" r="1.373"/>
        </g>
        <g>
            <circle cx="10.332" cy="19.667" r="1.373"/>
        </g>
        <g>
            <circle cx="1.375" cy="11.333" r="1.373"/>
        </g>
        <g>
            <circle cx="4.176" cy="22.488" r="1.373"/>
        </g>
    </g>
</svg>
