<?xml version="1.0" encoding="utf-8"?>
<!--Generator: Adobe Illustrator 16.0.0, SVG Export Plug-In . SVG Version: 6.00 Build 0)-->
<!DOCTYPE svg PUBLIC "-//W3C//DTD SVG 1.1//EN" "http://www.w3.org/Graphics/SVG/1.1/DTD/svg11.dtd">
<svg version="1.1" id="Layer_1" xmlns="http://www.w3.org/2000/svg" xmlns:xlink="http://www.w3.org/1999/xlink" x="0px" y="0px" width="168.12px" height="168.12px" viewBox="0 0 168.12 168.12" enable-background="new 0 0 168.12 168.12" xml:space="preserve">
    <g>
        <rect x="83.186" y="-0.002" width="3" height="19.471"/>
        <rect x="62.035" y="9.255" transform="matrix(0.1735 0.9848 -0.9848 0.1735 69.9072 -61.7935)" width="19.471" height="3"/>
        <rect x="49.491" y="12.504" transform="matrix(0.342 0.9397 -0.9397 0.342 52.1308 -46.441)" width="19.47" height="2.998"/>
        <rect x="37.704" y="17.88" transform="matrix(0.5001 0.866 -0.866 0.5001 40.4977 -31.3931)" width="19.471" height="3"/>
        <rect x="27.029" y="25.222" transform="matrix(0.6429 0.766 -0.766 0.6429 33.5973 -18.6171)" width="19.471" height="3.001"/>
        <rect x="17.791" y="34.307" transform="matrix(0.7661 0.6427 -0.6427 0.7661 29.449 -9.3171)" width="19.471" height="3"/>
        <rect x="10.271" y="44.857" transform="matrix(0.866 0.5 -0.5 0.866 25.8575 -3.7922)" width="19.47" height="3"/>
        <rect x="4.696" y="56.553" transform="matrix(0.9397 0.342 -0.342 0.9397 20.7235 -1.4351)" width="19.472" height="3"/>
        <rect x="1.238" y="69.04" transform="matrix(0.9848 0.1736 -0.1736 0.9848 12.4145 -0.834)" width="19.472" height="3"/>
        <rect x="-0.001" y="81.936" width="19.473" height="3.001"/>
        <rect x="9.259" y="86.619" transform="matrix(0.1735 0.9848 -0.9848 0.1735 103.7841 69.0386)" width="3" height="19.47"/>
        <rect x="12.506" y="99.162" transform="matrix(0.3419 0.9397 -0.9397 0.3419 111.5505 58.5031)" width="2.999" height="19.467"/>
        <rect x="17.883" y="110.949" transform="matrix(0.5001 0.866 -0.866 0.5001 114.2012 43.5498)" width="3" height="19.471"/>
        <rect x="25.224" y="121.626" transform="matrix(0.6433 0.7657 -0.7657 0.6433 110.1103 26.401)" width="3" height="19.469"/>
        <rect x="34.31" y="130.862" transform="matrix(0.7662 0.6426 -0.6426 0.7662 98.7116 9.8558)" width="3" height="19.47"/>
        <rect x="44.862" y="138.383" transform="matrix(0.866 0.5001 -0.5001 0.866 80.2804 -3.3344)" width="3" height="19.469"/>
        <rect x="56.558" y="143.956" transform="matrix(0.9397 0.3421 -0.3421 0.9397 56.0822 -10.5879)" width="2.997" height="19.47"/>
        <rect x="69.043" y="147.415" transform="matrix(0.9848 0.1738 -0.1738 0.9848 28.3839 -9.8681)" width="3.001" height="19.472"/>
        <rect x="81.94" y="148.651" width="3" height="19.471"/>
        <rect x="86.622" y="155.865" transform="matrix(0.1739 0.9848 -0.9848 0.1739 234.562 35.1047)" width="19.47" height="3.001"/>
        <rect x="99.164" y="152.617" transform="matrix(0.3423 0.9396 -0.9396 0.3423 216.434 -0.9554)" width="19.47" height="3"/>
        <rect x="110.952" y="147.24" transform="matrix(0.5002 0.8659 -0.8659 0.5002 189.1103 -30.1651)" width="19.468" height="2.998"/>
        <rect x="121.626" y="139.899" transform="matrix(0.643 0.7658 -0.7658 0.643 155.1776 -50.1265)" width="19.469" height="2.998"/>
        <rect x="130.864" y="130.812" transform="matrix(0.7662 0.6426 -0.6426 0.7662 117.8978 -59.4145)" width="19.47" height="3"/>
        <rect x="138.385" y="120.263" transform="matrix(0.8662 0.4998 -0.4998 0.8662 80.6745 -57.7269)" width="19.467" height="3"/>
        <rect x="143.96" y="108.566" transform="matrix(0.9398 0.3418 -0.3418 0.9398 46.8726 -45.9001)" width="19.467" height="3.001"/>
        <rect x="147.417" y="96.081" transform="matrix(0.9849 0.1734 -0.1734 0.9849 19.2957 -25.7657)" width="19.469" height="3"/>
        <rect x="148.655" y="83.183" width="19.465" height="3"/>
        <rect x="155.867" y="62.032" transform="matrix(0.1745 0.9847 -0.9847 0.1745 200.5768 -95.7082)" width="3" height="19.469"/>
        <rect x="152.618" y="49.491" transform="matrix(0.3425 0.9395 -0.9395 0.3425 156.9792 -105.8568)" width="3" height="19.467"/>
        <rect x="147.241" y="37.703" transform="matrix(0.5005 0.8657 -0.8657 0.5005 115.3552 -105.0743)" width="3.001" height="19.467"/>
        <rect x="139.898" y="27.029" transform="matrix(0.6431 0.7658 -0.7658 0.6431 78.6178 -95.1607)" width="3.001" height="19.466"/>
        <rect x="130.814" y="17.79" transform="matrix(0.7662 0.6426 -0.6426 0.7662 48.6149 -78.5848)" width="3" height="19.468"/>
        <rect x="120.266" y="10.271" transform="matrix(0.8661 0.4998 -0.4998 0.8661 26.2989 -58.1826)" width="2.999" height="19.466"/>
        <rect x="108.568" y="4.696" transform="matrix(0.9398 0.3417 -0.3417 0.9398 11.5554 -36.7408)" width="3.001" height="19.468"/>
        <rect x="96.082" y="1.238" transform="matrix(0.9849 0.173 -0.173 0.9849 3.3708 -16.7205)" width="3.002" height="19.469"/>
    </g>
</svg>
