<?xml version="1.0" encoding="utf-8"?>
<!--Generator: Adobe Illustrator 16.0.4, SVG Export Plug-In . SVG Version: 6.00 Build 0)-->
<!DOCTYPE svg PUBLIC "-//W3C//DTD SVG 1.1//EN" "http://www.w3.org/Graphics/SVG/1.1/DTD/svg11.dtd">
<svg version="1.1" id="Layer_1" xmlns="http://www.w3.org/2000/svg" xmlns:xlink="http://www.w3.org/1999/xlink" x="0px" y="0px" width="67.71px" height="58px" viewBox="0 0 67.71 58" enable-background="new 0 0 67.71 58" xml:space="preserve">
    <g id="heat-group" clip-path="url(#SVGID_2_)">
        <path id="heat-path" d="M7.145,55.061h-6c0-5.69,2.342-8.729,4.225-11.17c1.662-2.158,2.976-3.858,2.976-7.511
			c0-3.647-1.314-5.353-2.977-7.51c-1.884-2.44-4.226-5.478-4.226-11.17c0-5.694,2.342-8.73,4.225-11.173
			c1.662-2.157,2.977-3.86,2.977-7.51h6c0,5.693-2.344,8.73-4.225,11.173c-1.662,2.158-2.976,3.86-2.976,7.51
			c0,3.65,1.313,5.352,2.977,7.51c1.882,2.44,4.226,5.478,4.226,11.173c0,5.69-2.344,8.73-4.225,11.172
			c-1.662,2.154-2.975,3.86-2.975,7.506H7.145z M33.255,55.061h-6c0-5.69,2.342-8.729,4.224-11.17
			c1.66-2.158,2.976-3.858,2.976-7.511c0-3.647-1.312-5.353-2.977-7.51c-1.883-2.44-4.225-5.478-4.225-11.17
			c0-5.694,2.342-8.73,4.224-11.173c1.66-2.157,2.976-3.86,2.976-7.51h6c0,5.692-2.344,8.73-4.227,11.172
			c-1.662,2.156-2.976,3.86-2.976,7.51c0,3.648,1.312,5.352,2.975,7.51c1.882,2.44,4.226,5.479,4.226,11.17
			s-2.344,8.73-4.227,11.173c-1.662,2.156-2.975,3.862-2.975,7.509H33.255z M59.367,55.061h-6c0-5.69,2.342-8.729,4.225-11.17
			c1.66-2.158,2.977-3.858,2.977-7.511c0-3.647-1.312-5.353-2.977-7.51c-1.883-2.44-4.225-5.478-4.225-11.17
			c0-5.694,2.342-8.73,4.225-11.173c1.66-2.157,2.977-3.86,2.977-7.51h6c0,5.692-2.342,8.73-4.223,11.172
			c-1.662,2.156-2.979,3.86-2.979,7.51c0,3.648,1.313,5.352,2.979,7.51c1.88,2.44,4.223,5.479,4.223,11.17s-2.342,8.73-4.223,11.173
			C60.681,49.708,59.367,51.414,59.367,55.061z"/>
    </g>
</svg>
