<?xml version="1.0" encoding="utf-8"?>
<!--Generator: Adobe Illustrator 16.0.0, SVG Export Plug-In . SVG Version: 6.00 Build 0)-->
<!DOCTYPE svg PUBLIC "-//W3C//DTD SVG 1.1//EN" "http://www.w3.org/Graphics/SVG/1.1/DTD/svg11.dtd">
<svg version="1.1" id="Layer_1" xmlns="http://www.w3.org/2000/svg" xmlns:xlink="http://www.w3.org/1999/xlink" x="0px" y="0px" width="5.88px" height="67.38px" viewBox="0 0 5.88 67.38" enable-background="new 0 0 5.88 67.38" xml:space="preserve">
    <g>
        <path fill="#BA8E2D" d="M5.88,25.268c0.001-2.569-0.943-3.949-1.702-5.059C3.52,19.247,3,18.486,3,16.846s0.521-2.401,1.178-3.363
		c0.759-1.109,1.703-2.489,1.702-5.059c0.001-2.57-0.943-3.95-1.702-5.06C3.52,2.402,3,1.643,3,0.002H0
		C0,2.57,0.944,3.95,1.702,5.059c0.685,1,1.179,1.723,1.179,3.365c0,1.642-0.494,2.364-1.178,3.364C0.944,12.896,0,14.276,0,16.846
		C0,19.415,0.944,20.795,1.703,21.903c0.684,1,1.178,1.723,1.178,3.364s-0.494,2.364-1.178,3.364C0.944,29.74,0,31.12,0,33.689
		C0,36.259,0.944,37.638,1.702,38.747c0.685,1,1.179,1.723,1.179,3.365c0,1.642-0.494,2.363-1.178,3.363
		C0.944,46.584,0,47.964,0,50.534C0,53.103,0.944,54.482,1.702,55.591c0.685,1,1.179,1.723,1.179,3.365
		c0,1.642-0.494,2.364-1.178,3.364C0.944,63.429,0,64.809,0,67.378h3c0-1.641,0.521-2.401,1.178-3.363
		c0.759-1.109,1.703-2.489,1.702-5.059c0.001-2.57-0.943-3.95-1.702-5.06C3.52,52.935,3,52.175,3,50.534
		c0-1.642,0.521-2.402,1.178-3.364c0.759-1.109,1.703-2.488,1.702-5.058c0.001-2.57-0.943-3.95-1.702-5.06
		C3.52,36.091,3,35.33,3,33.689s0.521-2.401,1.178-3.363C4.937,29.217,5.881,27.837,5.88,25.268z"/>
    </g>
</svg>
