<?xml version="1.0" encoding="utf-8"?>
<!--Generator: Adobe Illustrator 16.0.0, SVG Export Plug-In . SVG Version: 6.00 Build 0)-->
<!DOCTYPE svg PUBLIC "-//W3C//DTD SVG 1.1//EN" "http://www.w3.org/Graphics/SVG/1.1/DTD/svg11.dtd">
<svg version="1.1" id="Layer_1" xmlns="http://www.w3.org/2000/svg" xmlns:xlink="http://www.w3.org/1999/xlink" x="0px" y="0px" width="30.99px" height="13.2px" viewBox="0 0 30.99 13.2" enable-background="new 0 0 30.99 13.2" xml:space="preserve">
    <g>
        <g>
            <path d="M15.496,2.598c-0.347,0-0.688-0.145-0.927-0.385c-0.239-0.249-0.378-0.581-0.378-0.928c0-0.34,0.139-0.679,0.378-0.919
			c0.494-0.489,1.363-0.483,1.846,0c0.241,0.24,0.385,0.579,0.385,0.919c0,0.347-0.144,0.687-0.385,0.928
			C16.173,2.454,15.834,2.598,15.496,2.598z"/>
            <path d="M14.191,6.589c0-0.716,0.579-1.305,1.305-1.305l0,0c0.715,0,1.304,0.589,1.304,1.305l0,0c0,0.724-0.589,1.306-1.304,1.306
			l0,0C14.771,7.895,14.191,7.313,14.191,6.589z"/>
            <path d="M15.496,13.198c-0.347,0-0.68-0.138-0.927-0.379c-0.239-0.241-0.378-0.58-0.378-0.927c0-0.338,0.139-0.671,0.378-0.92
			c0.494-0.489,1.363-0.482,1.846,0c0.241,0.242,0.385,0.582,0.385,0.92c0,0.347-0.144,0.686-0.385,0.927
			C16.173,13.061,15.834,13.198,15.496,13.198z"/>
        </g>
        <g>
            <path d="M22.183,2.844c-0.348,0-0.68-0.142-0.928-0.384c-0.241-0.247-0.379-0.58-0.379-0.926c0-0.34,0.138-0.672,0.379-0.92
			c0.491-0.482,1.363-0.482,1.846,0c0.249,0.248,0.386,0.58,0.386,0.92c0,0.346-0.137,0.679-0.386,0.926
			C22.86,2.703,22.522,2.844,22.183,2.844z"/>
            <path d="M25.007,6.211c-0.511-0.509-0.511-1.336,0-1.846l0,0c0.507-0.509,1.337-0.509,1.847,0l0,0c0.508,0.51,0.508,1.337,0,1.846
			l0,0c-0.254,0.255-0.59,0.378-0.92,0.378l0,0C25.595,6.589,25.262,6.466,25.007,6.211z"/>
            <path d="M29.686,10.341c-0.348,0-0.687-0.137-0.927-0.378c-0.243-0.243-0.38-0.581-0.38-0.928c0-0.339,0.137-0.677,0.38-0.92
			c0.487-0.488,1.364-0.488,1.846,0c0.239,0.243,0.385,0.581,0.385,0.92c0,0.347-0.146,0.68-0.385,0.928
			C30.363,10.204,30.022,10.341,29.686,10.341z"/>
        </g>
        <g>
            <path d="M8.809,2.839c-0.346,0-0.686-0.137-0.927-0.379c-0.24-0.247-0.379-0.58-0.379-0.92c0-0.346,0.139-0.678,0.379-0.926
			c0.489-0.482,1.356-0.482,1.846,0c0.242,0.248,0.379,0.58,0.379,0.926c0,0.34-0.137,0.673-0.379,0.92
			C9.479,2.703,9.149,2.839,8.809,2.839z"/>
            <path d="M4.132,6.211c-0.509-0.509-0.509-1.336,0-1.846l0,0c0.507-0.509,1.336-0.509,1.845,0l0,0c0.509,0.51,0.509,1.337,0,1.846
			l0,0C5.722,6.466,5.39,6.589,5.056,6.589l0,0C4.726,6.589,4.386,6.466,4.132,6.211z"/>
            <path d="M1.306,10.341c-0.345,0-0.679-0.137-0.927-0.378c-0.24-0.248-0.378-0.581-0.378-0.928c0-0.339,0.138-0.677,0.378-0.92
			c0.497-0.488,1.364-0.488,1.847,0c0.241,0.243,0.384,0.581,0.384,0.92c0,0.347-0.143,0.68-0.384,0.928
			C1.985,10.204,1.645,10.341,1.306,10.341z"/>
        </g>
    </g>
</svg>
