<svg xmlns="http://www.w3.org/2000/svg" width="99.913" height="36.964" viewBox="256.7 377.118 99.913 36.964" enable-background="new 256.7 377.118 99.913 36.964"><path fill="#939598" d="M276.636 395.846l-.85-1.16 1.16-3.245 4.48-1.854-1.003 3.94-.155 1.315zM285.522 385.49l1.624 1.238 1.468-2.783-3.092-1.08zM277.563 386.65l-1.16 1.16 1.933 1.39 1.237-2.164zM342.318 397.313l-1.16 1.083 1.933 1.39 1.16-2.163zM331.577 400.714l-1.082 1.082 1.855 1.468 1.236-2.242zM291.782 385.8l1.468-2.318 1.16.695.463 2.396-1.005.85zM281.504 388.427l.31-2.086 1.004.078 1.082 1.546-.386.927zM290.004 391.44l1.778-2.472 1.313.31.155 2.395-2.473.54zM288.845 394.223l-3.554-1.237-.076-1.622 2.86-1.082 1.544 2.86zM287.996 398.55l.386 1.16s1.313 0 1.468-.232c.154-.232-.155-1.313-.155-1.313l-1.7.385zM331.81 404.73l.386 1.16s1.313 0 1.47-.23c.153-.232-.156-1.314-.156-1.314l-1.7.385zM291.705 395.69l.54-1.93 3.17.23-1.856 2.55zM297.81 393.373l.85 2.01 1.158.308 1.468-1.544-1.39-2.01zM283.127 396l1.314.077.464-.54-.463-1.16-1.39.232zM341.546 393.76l.077 1.468-2.705 2.008-4.79-.927 3.013-2.706.85-1.004zM328.41 397.546l-.696-2.01-2.705 1.546 2.01 2.627zM335.75 400.868l1.546-.31-.774-2.24-2.24 1.16zM323.387 393.76l-2.473 1.158-.618-1.236 1.004-2.24 1.236-.156zM333.354 397.236l-1.313 1.623-.85-.696-.077-1.855.85-.542zM327.945 390.05l-2.78 1.082-.93-1.005 1.16-2.086 2.396.928zM330.495 388.35l2.24 3.014-.848 1.39-2.937-.695.31-3.17zM333.586 385.26l.31-1.16s-1.082-.773-1.39-.618c-.233.077-.542 1.16-.542 1.16l1.622.617zM328.95 385.49l-1.546 1.392-2.55-2.01 3.014-1.08zM322.536 384.177l.387-2.24-.773-.85-2.087.54.078 2.396zM336.214 390.05l-1.005-.773-.696.155-.31 1.236 1.315.54zM336.6 414.082l-.85-1.236 1.16-3.246 4.48-1.855-1.003 3.942-.156 1.313zM345.486 403.65l1.7 1.237 1.468-2.783-3.168-1.082zM337.604 404.887l-1.16 1.08 1.856 1.47 1.236-2.242zM349.428 404.73l1.468-2.316 1.16.695.463 2.472-1.006.772zM341.546 406.586l.23-2.086 1.006.077 1.08 1.546-.384.927zM347.65 409.6l1.778-2.473 1.313.31.156 2.395-2.473.618zM346.49 412.46l-3.553-1.314-.078-1.624 2.858-1.08 1.546 2.858zM353.137 409.214l.85 2.01 1.16.308 1.466-1.546-1.39-1.93zM327.79 409.137l1.7 1.236 1.47-2.782-3.17-1.08zM319.91 410.373l-1.16 1.08 1.854 1.47 1.237-2.24zM330.96 410.682l1.39-2.32 1.236.697.387 2.394-1.005.85zM323.85 412.072l.232-2.086 1.082.077 1.004 1.546-.386.926zM304.764 412.15l1.7 1.314 1.468-2.782-3.168-1.082zM281.35 404.577l.695-1.313 3.323-.387 3.786 3.09-4.018.93-1.236.462zM294.64 407.745l-.386 2.087h3.17l-.465-3.246zM289.927 401.255l-1.468-.54-.464 2.394 2.55.077zM290.236 405.582l1.932-.773.387 1.003-.85 1.7H290.7zM288.382 413.23l-.54-3.785 1.467-.772 2.24 2.01-1.855 2.704zM284.21 410.45l.463 1.16.695.23.85-.926-.773-1.16zM257.627 411.146l-.927-1.237 1.16-3.17 4.558-1.93-1.082 3.94-.154 1.39zM266.437 400.714l1.7 1.236 1.467-2.782-3.167-1.082zM258.555 401.95l-1.16 1.082 1.932 1.468 1.16-2.24zM272.772 401.1l1.392-2.396 1.236.774.386 2.395-1.004.773zM262.496 403.65l.23-2.087 1.083.078 1.08 1.547-.463.926zM270.996 406.664l1.776-2.473 1.237.31.23 2.473-2.55.54zM269.836 409.522l-3.554-1.313-.077-1.624 2.858-1.08 1.546 2.857zM268.91 410.682l.385 1.16s1.313 0 1.468-.232c.154-.232-.155-1.313-.155-1.313l-1.7.385zM272.695 410.99l.54-2.01 3.17.31-1.855 2.55zM278.723 408.596l.927 2.086 1.16.232 1.39-1.546-1.314-1.93zM264.118 411.223l1.236.077.464-.464-.386-1.158-1.39.154zM320.682 385.49l.31 1.47-2.242 2.472h-4.945l2.472-3.245.62-1.16zM308.473 391.673l-1.082-1.777-2.394 2.01 2.472 2.24zM316.277 393.604l1.468-.618-1.236-2.008-1.933 1.545zM299.586 400.02l1.546-.542-1.236-2.087-1.932 1.624zM283.36 401.486l1.467-.54-1.236-2.087-1.93 1.62zM302.832 388.968l-2.24 1.623-.85-1.158.54-2.396 1.236-.308zM329.336 403.572l-2.24 1.546-.85-1.082.54-2.395 1.236-.385zM313.264 390.514l-1.005 1.777-.928-.463-.387-1.854.696-.62zM306.618 384.486l-2.627 1.546-1.004-.773.696-2.242 2.55.387zM296.11 400.637l-2.55 1.622-1.083-.774.773-2.318 2.473.464zM308.782 382.323l2.78 2.472-.617 1.546-3.013-.076-.31-3.168zM311.255 378.69l.154-1.158s-1.237-.54-1.47-.386c-.23.154-.31 1.236-.31 1.236l1.625.31zM295.027 413.31l.154-1.16s-1.235-.54-1.467-.386c-.232.154-.31 1.236-.31 1.236l1.624.31zM297.5 390.36l.154-1.16s-1.236-.54-1.468-.387c-.232.155-.31 1.236-.31 1.236l1.624.31zM306.695 379.85l-1.313 1.623-2.782-1.47 2.705-1.62zM300.205 384.177l-.078-2.24-.927-.696-1.932.928.464 2.318zM341.005 403.572l-.077-2.24-.928-.695-1.932.926.464 2.32zM298.736 404.5l-.077-2.164-.928-.773-1.932.928.464 2.32zM314.73 382.864l-1.158-.54-.618.308-.077 1.236 1.314.31zM302.91 408.055l-.85-1.16 1.08-3.245 4.56-1.854-1.082 3.94-.077 1.314zM311.796 397.7l1.622 1.237 1.47-2.783-3.17-1.08zM303.836 398.937l-1.16 1.082 1.933 1.39 1.158-2.165zM318.055 398.01l1.467-2.32 1.16.697.386 2.472-.927.772zM276.482 399.322l1.39-2.317 1.237.695.386 2.396-1.005.85zM298.66 410.527l1.467-2.318 1.16.694.386 2.473-1.005.773zM307.777 400.637l.232-2.087 1.08.077 1.083 1.546-.464.927zM316.277 403.65l1.778-2.472 1.313.308.154 2.396-2.55.618zM315.118 406.432l-3.555-1.237-.077-1.623 2.86-1.08 1.545 2.858zM314.19 410.76l.387 1.158s1.313 0 1.47-.23c.153-.232-.156-1.314-.156-1.314l-1.7.385zM277.022 405.118l.387 1.16s1.312 0 1.467-.232c.154-.232-.155-1.314-.155-1.314l-1.7.386zM317.978 407.978l.54-2.01 3.17.31-1.856 2.472zM320.99 402.646l.928 2.008 1.16.31 1.39-1.546-1.314-2.01zM262.573 396.31l.54-2.01 3.17.31-1.933 2.472zM268.6 393.914l.85 2.01 1.16.307 1.467-1.543-1.39-2.01zM309.4 408.21l1.314.076.464-.54-.464-1.16-1.392.232z"/></svg>