<svg xmlns="http://www.w3.org/2000/svg" width="85.773" height="37.014" viewBox="261.955 373.05 85.773 37.014" enable-background="new 261.955 373.05 85.773 37.014"><path fill="#939598" d="M262.187 400.637l-.232-2.86 5.022-4.018 9.196 1.39-5.564 5.33-1.547 2.01zM307.623 394.068l1.314-2.55 6.413-.695 6.955 6.105-7.496 1.545-2.396.85zM326.478 396.23l3.013 2.552 3.015-5.1-5.796-2.318zM291.55 380.004l1.468 3.71 5.1-3.09-4.018-4.792zM310.25 405.89l.077 2.396 3.478-.695-1.237-3.554zM274.782 388.736l-2.937.696 1.7 4.172 4.096-2.395zM298.89 373.282l-2.935.618 1.622 4.25 4.173-2.473zM344.404 401.64l-2.704 1.237 2.473 3.71 3.555-3.17zM271.46 403.572l-1.624.697 1.47 2.24 2.162-1.856zM335.75 396.54l-2.627-1.544-1.623 4.25 4.637 1.004zM326.478 384.486l-2.937.696 1.7 4.172 4.096-2.395zM325.55 396.928l-2.937.618 1.7 4.172 4.096-2.396zM310.404 400.096l-2.936.618 1.623 4.25 4.097-2.473zM315.35 377.764l-3.014.618 1.7 4.173 4.096-2.396zM299.74 405.35l-1.545.31.85 2.162 2.164-1.236zM338.995 405.118l-2.473 1.778 3.17 3.167 2.858-3.786zM303.527 403.264l-1.468 2.395 3.863 1.467 1.005-4.25zM303.914 385.104l-2.937.62 1.7 4.172 4.095-2.396zM289.618 403.96l-2.55-1.16-1.16 4.096 4.483.54zM299.973 378.923l4.636-2.32 1.235 2.32-1.7 4.25-2.395.386zM280.577 401.486l2.473-3.09 1.623 1.16.154 3.553-1.545 1.003zM307.082 376.14l2.473-3.09 1.623 1.16.23 3.554-1.545 1.004zM286.76 391.596l2.472-3.17 1.622 1.16.232 3.555-1.622 1.083zM281.736 394.455l2.396-3.17 1.622 1.238.232 3.554-1.545 1.005zM320.45 393.063l2.473-3.167 1.623 1.236.23 3.555-1.545 1.004zM296.65 392.136l2.473-3.09 1.623 1.16.23 3.553-1.544 1.004zM269.76 388.04l1.776 3.556-1.777.927-3.246-1.39-.31-1.856zM323 378.768l1.777 3.555-1.777.927-3.322-1.313-.233-1.855zM325.627 402.723l1.777 3.554-1.777.927-3.245-1.39-.31-1.855zM278.877 396.077l1.777 3.555-1.777 1.005-3.322-1.392-.232-1.854zM280.577 388.195l2.473-3.09 1.623 1.16.154 3.553-1.545 1.005zM291.627 386.264l5.255-2.24 1.777 1.776-2.01 4.096-4.636-1.623zM329.027 400.327l6.414 1.623.387 2.86-4.714 2.317-3.168-4.636zM263.036 402.336l3.787 1.005.31 1.7-2.86 1.392-1.932-2.782zM287.455 388.195l-4.482-5.486 1.468-2.783 5.642 1.082-.31 6.104zM340.695 401.178l-4.558-5.487 1.545-2.78 5.64 1.08-.308 6.106zM321.995 400.714l-3.71 6.104-3.09-.464-.85-5.717 5.796-1.7zM301.21 400.79l-4.87 6.724-3.554-.85-.463-6.723 6.954-1.467zM319.522 391.132l-4.558-5.486 1.545-2.782 5.562 1.08-.23 6.106zM310.173 389.045l-4.56-5.563 1.546-2.705 5.563 1.082-.232 6.026zM277.563 391.905l-.54 2.24s2.163 1.314 2.626 1.16c.463-.232 1.003-2.24 1.003-2.24l-3.09-1.16zM337.604 404.73l2.087-.85s-.23-2.55-.618-2.78c-.463-.232-2.395.54-2.395.54l.927 3.09zM333.123 390.205l-.54 2.24s2.162 1.315 2.626 1.16c.463-.232 1.004-2.24 1.004-2.24l-3.09-1.16zM334.59 406.586l-1.08 1.005s.694 1.47 1.004 1.547c.31.077 1.313-.85 1.313-.85l-1.236-1.7zM273.16 400.25l-.542 2.24s2.164 1.314 2.627 1.16c.463-.232 1.004-2.24 1.004-2.24l-3.09-1.16zM329.954 407.282l-1.932-.078s-.772 2.087-.464 2.396c.232.31 2.087.464 2.087.464l.31-2.782zM303.218 390.823l-.54 2.24s2.163 1.315 2.626 1.16c.463-.232 1.004-2.24 1.004-2.24l-3.09-1.16zM319.986 406.2l-.54 2.24s2.163 1.314 2.626 1.16c.464-.232 1.005-2.24 1.005-2.24l-3.09-1.16zM281.35 404.113l-.464 2.01s1.932 1.16 2.318 1.004c.386-.154.85-2.01.85-2.01l-2.704-1.004zM291.01 394.918l2.78-2.704 4.87 3.554-5.487 2.24zM302.29 395.228l-.54 4.094 1.545 1.623 3.864-1.082-.31-4.558zM276.018 386.187l1.39 2.008 1.315.078 1.236-1.932-1.856-1.854zM328.41 389.2l1.39 2.01 1.313.076 1.237-2.01-1.932-1.853zM276.79 403.34l1.392 2.01 1.314.155 1.236-2.01-1.855-1.854zM285.832 399.168l1.39 2.01 1.314.077 1.236-2.01-1.854-1.854z"/></svg>