<?xml version="1.0" encoding="utf-8"?>
<!-- Generator: Adobe Illustrator 16.0.4, SVG Export Plug-In . SVG Version: 6.00 Build 0)  -->
<!DOCTYPE svg PUBLIC "-//W3C//DTD SVG 1.1//EN" "http://www.w3.org/Graphics/SVG/1.1/DTD/svg11.dtd">
<svg version="1.1" id="foreground" xmlns="http://www.w3.org/2000/svg" xmlns:xlink="http://www.w3.org/1999/xlink" x="0px" y="0px"
	 width="3676px" height="1255.939px" viewBox="0 0 3676 1255.939" enable-background="new 0 0 3676 1255.939" xml:space="preserve">
<path fill="#0089CF" d="M424.391,678.86l874.687-105.317l0.596-0.071h172.533v495.13H424.391V678.86z M1452.205,593.471h-151.336
	L444.391,696.596v352.006h1007.814V593.471L1452.205,593.471z"/>
<g>
	<path fill="#0089CF" d="M1571.309,726.542h754.537v412.059h-754.537V726.542z M2305.846,746.471h-714.537v372.131h714.537V746.471z
		"/>
</g>
<polygon points="1279.949,714.748 1347.715,714.748 1354.828,692.824 1272.836,692.824 "/>
<line fill="none" stroke="#000000" stroke-width="14" stroke-miterlimit="10" x1="2089.439" y1="958.062" x2="2089.439" y2="994.848"/>
<g>
	<path d="M505.453,772.559h232v288.416h-232V772.559z M717.453,792.559h-192v248.416h192V792.559z"/>
</g>
<g>
	<path d="M971.79,1063.044H799.343V830.166H971.79V1063.044z M819.343,1043.044H951.79V850.166H819.343V1043.044z"/>
</g>
<g>
	<rect x="809.343" y="893.499" width="152.447" height="6"/>
</g>
<g>
	<rect x="809.343" y="930.01" width="152.447" height="6"/>
</g>
<g>
	<rect x="809.343" y="966.521" width="152.447" height="6"/>
</g>
<polygon fill="#BA8E2D" points="684.955,919.67 684.955,995.101 664.955,995.101 664.955,955.939 577.951,955.939 577.951,995.101 
	557.951,995.101 557.951,919.67 "/>
<polygon points="851.684,890.97 919.449,890.97 926.562,869.046 844.57,869.046 "/>
<polygon fill="#BA8E2D" points="917.035,879.345 915.088,885.345 856.045,885.345 854.098,879.345 "/>
<polygon points="851.684,927.736 919.449,927.736 926.562,905.812 844.57,905.812 "/>
<polygon fill="#BA8E2D" points="917.035,916.111 915.088,922.111 856.045,922.111 854.098,916.111 "/>
<polygon points="851.902,964.182 919.668,964.182 926.781,942.258 844.789,942.258 "/>
<polygon fill="#BA8E2D" points="917.254,952.557 915.307,958.557 856.264,958.557 854.316,952.557 "/>
<circle cx="621.454" cy="852.571" r="36.589"/>
<polygon points="603.93,935.748 638.637,935.748 642.279,905.812 600.287,905.812 "/>
<g>
	<polygon points="1302.601,689.824 1418.939,689.824 1433.152,663.325 1316.812,663.325 	"/>
</g>
<polyline fill="none" stroke="#000000" stroke-width="14" stroke-miterlimit="10" points="1745.679,801.888 1745.679,780.296 
	1663.205,780.296 1663.205,924.848 1075.167,924.848 "/>
<polyline fill="none" stroke="#000000" stroke-width="14" stroke-miterlimit="10" points="1755.271,960.223 1755.271,994.848 
	1824.993,994.848 1824.993,883.645 1843.568,883.645 "/>
<polyline fill="none" stroke="#000000" stroke-width="14" stroke-miterlimit="10" points="1975.23,994.848 1904.299,994.848 
	1904.299,883.645 1885.724,883.645 "/>
<g>
	<path d="M1296.479,850.333h-27.132v60.515h27.132V850.333z"/>
	<path d="M1343.296,850.333h-27.132v60.515h27.132V850.333z"/>
	<path d="M1249.661,850.333h-27.133v60.515h27.133V850.333z"/>
	<path d="M1156.024,850.333h-27.132v60.515h27.132V850.333z"/>
	<path d="M1202.843,850.333h-27.133v60.515h27.133V850.333z"/>
</g>
<rect x="1934.957" y="929.153" width="58.625" height="19.518"/>
<polygon fill="#4F6B47" points="3675.999,1021.776 3558.335,1021.776 3414.996,992.17 2376.896,994.502 2326.896,1034.502 
	1570,1034.502 1499.025,994.502 387.098,994.502 194.102,1084.502 0.583,1084.502 0,1255.939 3676,1255.939 "/>
<polygon points="1039.322,988.58 1107.088,988.58 1114.201,966.656 1032.209,966.656 "/>
<polyline points="3287.133,920.776 3287.133,760.72 3676,760.72 3676,774.72 3301.133,774.72 3301.133,920.583 "/>
<line fill="none" stroke="#000000" stroke-width="14" stroke-miterlimit="10" x1="1378.832" y1="631.517" x2="3676" y2="631.517"/>
<polygon points="3301.133,974.776 3096.885,974.776 3096.885,814.72 3070.052,814.72 3070.052,974.776 2917,974.776 2917,814.72 
	2890.189,814.72 2890.189,974.776 2737,974.776 2737,814.72 2710.619,814.72 2710.619,974.776 2558.049,974.776 2558.049,814.72 
	2531.764,814.72 2531.764,930.848 2418.667,930.848 2418.667,853.171 2172.467,853.171 2172.467,1001.848 2018.994,1001.848 
	2018.994,787.296 1772.667,787.296 1772.667,799.707 1758.667,799.707 1758.667,773.296 2032.994,773.296 2032.994,987.848 
	2158.467,987.848 2158.467,839.171 2432.667,839.171 2432.667,916.848 2517.764,916.848 2517.764,800.72 2572.049,800.72 
	2572.049,960.776 2696.619,960.776 2696.619,800.72 2751,800.72 2751,960.776 2876.189,960.776 2876.189,800.72 2931,800.72 
	2931,960.776 3056.052,960.776 3056.052,800.72 3110.885,800.72 3110.885,960.776 3287.133,960.776 3287.133,848.468 
	3301.133,848.468 "/>
</svg>
