<?xml version="1.0" encoding="utf-8"?>
<!-- Generator: Adobe Illustrator 16.0.4, SVG Export Plug-In . SVG Version: 6.00 Build 0)  -->
<!DOCTYPE svg PUBLIC "-//W3C//DTD SVG 1.1//EN" "http://www.w3.org/Graphics/SVG/1.1/DTD/svg11.dtd">
<svg version="1.1" id="background_1_" xmlns="http://www.w3.org/2000/svg" xmlns:xlink="http://www.w3.org/1999/xlink" x="0px"
	 y="0px" width="3676px" height="1255.939px" viewBox="0 0 3676 1255.939" enable-background="new 0 0 3676 1255.939"
	 xml:space="preserve">
<path d="M1434.211,442.105h87.188l28.704-15.449l-0.041-59.728c0-4.555-4.582-8.249-10.23-8.249h-17.586
	c0.002,0.025,0.006,0.049,0.007,0.074c0.385,6.223-1.678,12.222-5.806,16.893c-4.429,5.012-10.806,7.886-17.498,7.886
	c-5.691,0-11.179-2.078-15.445-5.85c-4.672-4.128-7.456-9.827-7.842-16.05c-0.062-0.992-0.053-1.977,0.008-2.953h-29.719v-0.032
	h-37.961v109.161c0,4.557,4.581,8.249,10.231,8.249H1538c5.648,0,10.23-3.692,10.23-8.249v-14.224l-19.07,8.469
	c-0.451,0.331-0.996,0.508-1.557,0.508h-93.394c-5.641,0-10.229-4.588-10.229-10.229
	C1423.982,446.693,1428.57,442.105,1434.211,442.105z"/>
<g>
	<g>
		<path fill="#0089CF" d="M1536.904,455.636l13.197-7.112v-19.646l-13.197,7.114V455.636z M1339.273,292.931v205.417h210.828
			v-47.583l-13.197,7.114v27.271H1352.47V306.128h184.435v127.62l13.197-7.114V292.931H1339.273z"/>
	</g>
</g>
<polygon fill="#0089CF" points="2655.189,516.641 2201.746,516.641 2201.746,396.016 2214.944,396.016 2214.944,503.444 
	2641.992,503.444 2641.992,170.53 2214.944,170.53 2214.944,316.844 2201.746,316.844 2201.746,157.333 2655.189,157.333 "/>
<g>
	<path fill="#0089CF" d="M1891.023,536.471c-34.78,0-66.629-10.775-89.677-30.345c-24.666-20.942-37.704-49.932-37.704-83.835
		c0-70.238,57.145-127.379,127.381-127.379c27.748,0,51.617,5.792,70.942,17.216c16.028,9.476,28.979,22.82,38.493,39.664
		c16.648,29.479,17.944,61.414,17.944,70.499c0,33.904-13.039,62.894-37.705,83.835
		C1957.652,525.695,1925.805,536.471,1891.023,536.471z M1891.023,308.108c-62.961,0-114.184,51.222-114.184,114.182
		c0,29.907,11.429,55.418,33.05,73.775c20.664,17.545,49.479,27.208,81.134,27.208c31.654,0,60.469-9.663,81.133-27.208
		c21.621-18.357,33.05-43.867,33.05-73.775c0-8.271-1.172-37.332-16.239-64.008C1970.164,324.989,1937.211,308.108,1891.023,308.108
		z"/>
</g>
<linearGradient id="SVGID_1_" gradientUnits="userSpaceOnUse" x1="1838" y1="837.9717" x2="1838" y2="223.8114" gradientTransform="matrix(1 0 0 -1 0 1256.9395)">
	<stop  offset="0" style="stop-color:#829676"/>
	<stop  offset="0.0444" style="stop-color:#7B9270"/>
	<stop  offset="0.1524" style="stop-color:#708A65"/>
	<stop  offset="0.287" style="stop-color:#68855E"/>
	<stop  offset="0.4758" style="stop-color:#63825A"/>
	<stop  offset="1" style="stop-color:#628158"/>
</linearGradient>
<polygon fill="url(#SVGID_1_)" points="919.458,392.176 966.197,392.176 1001.249,345.883 1095.568,378.739 1149.282,389.591 
	1340.939,453.189 1522.015,453.189 1620.573,409.217 2072.781,409.461 2209.96,453.774 3676,453.774 3676,1255.939 0,1255.939 
	0,346.93 887.267,346.93 "/>
<polyline fill="none" stroke="#000000" stroke-width="16.5" stroke-linecap="round" stroke-miterlimit="10" points="
	1775.645,501.309 2038.639,501.309 2171.278,350.66 2214.068,350.66 "/>
<polygon fill="#7C5F48" points="892.09,365.157 0.583,367.242 0.583,348.753 892.09,346.668 "/>
<polyline fill="none" stroke="#000000" stroke-width="14" stroke-miterlimit="10" points="2587,248.594 2331.973,248.594 
	2331.973,282.167 "/>
<path d="M1879.982,329.976h-146.261c-0.139,0-0.276,0.046-0.388,0.127l-0.171,0.125l-0.193,0.086l-210.768,113.601l-0.383,0.17
	h-87.609c-4.548,0-8.249,3.7-8.249,8.249s3.701,8.249,8.249,8.249h93.395c0.139,0,0.274-0.045,0.388-0.127l0.172-0.125l0.192-0.087
	l210.767-113.6l0.385-0.17h140.476c4.549,0,8.25-3.7,8.25-8.249C1888.232,333.677,1884.531,329.976,1879.982,329.976z"/>
<path fill="none" stroke="#000000" stroke-width="20" stroke-miterlimit="10" d="M2300.58,398.736"/>
<path d="M1405.372,338.796h-117.226c-0.14,0-0.276,0.045-0.389,0.127l-0.13,0.094l-0.141,0.072l-190.169,96.654l-0.422,0.214
	h-87.663c-4.55,0-8.25,3.7-8.25,8.249c0,4.548,3.7,8.249,8.25,8.249h93.393c0.14,0,0.276-0.045,0.39-0.127l0.129-0.094l0.142-0.072
	l190.168-96.654l0.423-0.215h111.495c4.549,0,8.249-3.7,8.249-8.249S1409.921,338.796,1405.372,338.796z"/>
<g>
	<polygon fill="#BA8E2D" points="1417.395,350.47 1417.395,353.047 1432.271,353.047 	"/>
	<g>
		<polygon fill="#BA8E2D" points="1417.395,341.41 1443.888,345.833 1454.742,345.833 1417.395,339.312 		"/>
	</g>
	<g>
		<polygon fill="#BA8E2D" points="1417.395,345.015 1443.888,349.441 1454.742,349.441 1417.395,342.917 		"/>
	</g>
	<g>
		<polygon fill="#BA8E2D" points="1417.395,348.621 1443.888,353.047 1454.742,353.047 1417.395,346.524 		"/>
	</g>
</g>
<g>
	<path d="M979.174,452.52H902.36c-4.552,0-8.272-3.724-8.272-8.273l0,0c0-4.549,3.722-8.272,8.272-8.272h76.812
		c4.551,0,8.273,3.724,8.273,8.272l0,0C987.447,448.796,983.725,452.52,979.174,452.52z"/>
</g>
<g>
	<path d="M1832.671,463.334h-61.075c-3.616,0-6.578-2.961-6.578-6.578l0,0c0-3.619,2.962-6.578,6.578-6.578h61.075
		c3.62,0,6.579,2.958,6.579,6.578l0,0C1839.25,460.374,1836.291,463.334,1832.671,463.334z"/>
</g>
<g>
	<path d="M1921.561,463.334h-61.074c-3.618,0-6.577-2.961-6.577-6.578l0,0c0-3.619,2.959-6.578,6.577-6.578h61.074
		c3.62,0,6.578,2.958,6.578,6.578l0,0C1928.139,460.374,1925.181,463.334,1921.561,463.334z"/>
</g>
<g>
	<path d="M2009.102,463.334h-61.074c-3.617,0-6.577-2.961-6.577-6.578l0,0c0-3.619,2.96-6.578,6.577-6.578h61.074
		c3.621,0,6.579,2.958,6.579,6.578l0,0C2015.681,460.374,2012.723,463.334,2009.102,463.334z"/>
</g>
<g>
	<line fill="none" x1="908.453" y1="380.285" x2="972.59" y2="383.973"/>
	
		<rect x="908.453" y="380.028" transform="matrix(-0.9984 -0.0574 0.0574 -0.9984 1857.6714 817.6106)" width="64.248" height="4.2"/>
</g>
<g>
	<line fill="none" x1="908.769" y1="374.225" x2="972.906" y2="377.915"/>
	<rect x="908.764" y="373.981" transform="matrix(-0.9984 -0.0574 0.0574 -0.9984 1858.635 805.547)" width="64.245" height="4.2"/>
</g>
<g>
	<line fill="none" x1="897.74" y1="367.472" x2="984.569" y2="372.467"/>
	
		<rect x="897.715" y="367.881" transform="matrix(-0.9984 -0.0574 0.0574 -0.9984 1859.6188 793.3761)" width="86.976" height="4.201"/>
</g>
<g>
	<line fill="none" x1="898.062" y1="361.347" x2="984.889" y2="366.34"/>
	
		<rect x="898.04" y="361.744" transform="matrix(-0.9984 -0.0574 0.0574 -0.9984 1860.6184 781.1307)" width="86.974" height="4.201"/>
</g>
<path fill="#0089CF" d="M967.611,398.604h-53.594l-32.981-47.126V183.596l119.557,33.228v134.654L967.611,398.604z M920.89,385.406
	h39.851l26.656-38.089V226.853l-93.162-25.892v146.356L920.89,385.406z"/>
<polygon fill="#BA8E2D" points="2532.18,362.373 2506.52,362.373 2506.52,361.355 2486.722,330.341 2352.049,330.341 
	2352.049,429.84 2486.722,429.84 2506.52,398.826 2506.52,398.41 2532.18,398.41 "/>
<path fill="#BA8E2D" d="M919.676,429.207h12.444v-22.631h-12.444V429.207z M934.1,429.207h12.444v-22.631H934.1V429.207z
	 M948.523,429.207h12.443v-22.631h-12.443V429.207L948.523,429.207z M905.254,429.207h12.442v-22.631h-12.442V429.207z
	 M979.368,406.575h-1.996v22.631h9.914v-14.712L979.368,406.575z M962.947,429.207h12.445v-22.631h-12.445V429.207z
	 M893.831,421.288l7.919,7.919h1.521v-22.631h-9.44V421.288z"/>
<g>
	<polygon fill="#939598" points="1866.461,392.14 1865.721,391.102 1866.697,388.374 1870.561,386.761 1869.675,390.126 
		1869.554,391.274 	"/>
	<polygon fill="#939598" points="1874.035,383.253 1875.469,384.328 1876.715,381.952 1874.031,381.029 	"/>
	<polygon fill="#939598" points="1867.278,384.299 1866.294,385.239 1867.919,386.466 1868.942,384.572 	"/>
	<polygon fill="#939598" points="1922.54,393.344 1921.557,394.284 1923.18,395.511 1924.204,393.618 	"/>
	<polygon fill="#939598" points="1913.409,396.272 1912.426,397.212 1914.051,398.439 1915.074,396.545 	"/>
	<polygon fill="#939598" points="1879.406,383.55 1880.641,381.565 1881.663,382.163 1882.012,384.227 1881.16,384.923 	"/>
	<polygon fill="#939598" points="1870.65,385.77 1870.858,383.991 1871.764,384.072 1872.678,385.39 1872.314,386.152 	"/>
	<polygon fill="#939598" points="1877.898,388.332 1879.396,386.239 1880.499,386.504 1880.657,388.568 1878.506,389.045 	"/>
	<polygon fill="#939598" points="1876.9,390.754 1873.873,389.682 1873.811,388.266 1876.229,387.364 1877.547,389.781 	"/>
	<path fill="#939598" d="M1876.142,394.421l0.298,0.981c0,0,1.153,0.009,1.275-0.179c0.126-0.187-0.143-1.092-0.143-1.092
		L1876.142,394.421z"/>
	<path fill="#939598" d="M1913.58,399.714l0.299,0.982c0,0,1.152,0.009,1.275-0.18c0.124-0.187-0.146-1.093-0.146-1.093
		L1913.58,399.714z"/>
	<polygon fill="#939598" points="1879.349,392.021 1879.808,390.328 1882.513,390.565 1880.92,392.721 	"/>
	<polygon fill="#939598" points="1884.517,390 1885.268,391.731 1886.259,391.987 1887.482,390.64 1886.323,388.969 	"/>
	<polygon fill="#939598" points="1872.016,392.244 1873.109,392.319 1873.508,391.876 1873.142,390.883 1871.969,391.036 	"/>
	<polygon fill="#939598" points="1910.699,393.543 1910.098,391.854 1907.749,393.148 1909.477,395.398 	"/>
	<polygon fill="#939598" points="1916.912,396.397 1918.252,396.156 1917.574,394.236 1915.676,395.25 	"/>
	<polygon fill="#939598" points="1906.385,390.331 1904.261,391.305 1903.738,390.243 1904.583,388.33 1905.678,388.218 	"/>
	<polygon fill="#939598" points="1914.913,393.31 1913.757,394.679 1913.047,394.111 1913.011,392.507 1913.733,392.072 	"/>
	<polygon fill="#939598" points="1910.279,387.175 1907.876,388.095 1907.104,387.263 1908.109,385.455 1910.168,386.245 	"/>
	<polygon fill="#939598" points="1912.448,385.706 1914.384,388.269 1913.655,389.486 1911.139,388.903 1911.373,386.161 	"/>
	<polygon fill="#939598" points="1911.105,383.297 1909.789,384.456 1907.664,382.765 1910.181,381.848 	"/>
	<polygon fill="#939598" points="1905.68,382.133 1906.009,380.273 1905.323,379.514 1903.559,379.962 1903.605,381.994 	"/>
	<polygon fill="#939598" points="1917.344,387.157 1916.475,386.49 1915.896,386.64 1915.653,387.672 1916.717,388.191 	"/>
	<polygon fill="#939598" points="1925.252,398.775 1926.686,399.852 1927.932,397.475 1925.248,396.552 	"/>
	<polygon fill="#939598" points="1918.495,399.822 1917.512,400.762 1919.135,401.989 1920.159,400.095 	"/>
	<polygon fill="#939598" points="1921.867,401.294 1922.075,399.515 1922.98,399.595 1923.895,400.913 1923.532,401.675 	"/>
	<polygon fill="#939598" points="1927.136,403.855 1928.633,401.762 1929.736,402.028 1929.896,404.092 1927.742,404.568 	"/>
	<polygon fill="#939598" points="1926.137,406.276 1923.109,405.205 1923.047,403.791 1925.465,402.888 1926.783,405.304 	"/>
	<polygon fill="#939598" points="1931.773,403.544 1932.525,405.274 1933.516,405.532 1934.741,404.184 1933.58,402.514 	"/>
	<polygon fill="#939598" points="1910.145,403.467 1911.578,404.543 1912.822,402.167 1910.14,401.243 	"/>
	<polygon fill="#939598" points="1903.386,404.514 1902.402,405.453 1904.027,406.68 1905.05,404.787 	"/>
	<polygon fill="#939598" points="1912.834,404.784 1914.066,402.799 1915.09,403.397 1915.438,405.46 1914.587,406.157 	"/>
	<polygon fill="#939598" points="1906.758,405.985 1906.969,404.207 1907.871,404.286 1908.786,405.605 1908.423,406.367 	"/>
	<polygon fill="#939598" points="1890.506,406.059 1891.939,407.133 1893.186,404.758 1890.503,403.835 	"/>
	<polygon fill="#939598" points="1870.473,399.596 1871.061,398.465 1873.932,398.092 1877.129,400.796 1873.729,401.542 
		1872.652,401.955 	"/>
	<polygon fill="#939598" points="1881.836,402.292 1881.529,404.059 1884.215,404.085 1883.812,401.276 	"/>
	<polygon fill="#939598" points="1877.826,396.752 1876.54,396.304 1876.188,398.311 1878.34,398.359 	"/>
	<polygon fill="#939598" points="1878.053,400.425 1879.73,399.802 1880.07,400.643 1879.312,402.057 1878.47,402.081 	"/>
	<polygon fill="#939598" points="1876.462,406.939 1876.036,403.755 1877.268,403.054 1879.173,404.797 1877.623,407.07 	"/>
	<polygon fill="#939598" points="1872.911,404.589 1873.342,405.597 1873.916,405.75 1874.635,404.971 1873.964,403.996 	"/>
	<polygon fill="#939598" points="1863.143,396.578 1864.377,394.593 1865.4,395.191 1865.749,397.254 1864.896,397.951 	"/>
	<polygon fill="#939598" points="1854.387,398.797 1854.596,397.019 1855.5,397.1 1856.415,398.417 1856.053,399.18 	"/>
	<polygon fill="#939598" points="1861.636,401.359 1863.133,399.267 1864.236,399.532 1864.395,401.596 1862.242,402.072 	"/>
	<path fill="#939598" d="M1859.878,404.809l0.3,0.982c0,0,1.152,0.009,1.274-0.18c0.125-0.188-0.144-1.093-0.144-1.093
		L1859.878,404.809z"/>
	<polygon fill="#939598" points="1868.252,403.027 1869.006,404.758 1869.996,405.015 1871.22,403.668 1870.061,401.998 	"/>
	<polygon fill="#939598" points="1855.753,405.271 1856.846,405.347 1857.245,404.904 1856.879,403.91 1855.705,404.062 	"/>
	<polygon fill="#939598" points="1904.062,383.271 1904.35,384.515 1902.402,386.659 1898.217,386.67 1900.322,383.901 
		1900.876,382.886 	"/>
	<polygon fill="#939598" points="1893.663,388.581 1892.75,387.039 1890.689,388.756 1892.814,390.636 	"/>
	<polygon fill="#939598" points="1900.307,390.202 1901.575,389.711 1900.545,387.956 1898.873,389.312 	"/>
	<polygon fill="#939598" points="1886.081,395.717 1887.351,395.226 1886.319,393.471 1884.648,394.828 	"/>
	<polygon fill="#939598" points="1872.196,396.941 1873.465,396.45 1872.436,394.694 1870.763,396.052 	"/>
	<polygon fill="#939598" points="1888.814,386.249 1886.916,387.61 1886.198,386.667 1886.666,384.626 1887.721,384.309 	"/>
	<polygon fill="#939598" points="1911.448,398.699 1909.547,400.061 1908.831,399.118 1909.299,397.077 1910.354,396.759 	"/>
	<polygon fill="#939598" points="1897.756,387.552 1896.881,389.114 1896.076,388.694 1895.736,387.127 1896.363,386.561 	"/>
	<polygon fill="#939598" points="1892.039,382.41 1889.854,383.77 1888.938,383.102 1889.581,381.135 1891.752,381.519 	"/>
	<polygon fill="#939598" points="1883.08,396.229 1880.896,397.589 1879.979,396.92 1880.624,394.954 1882.794,395.338 	"/>
	<polygon fill="#939598" points="1893.888,380.555 1896.274,382.704 1895.793,384.037 1893.213,383.943 1892.919,381.206 	"/>
	<path fill="#939598" d="M1895.994,377.458l0.099-1.022c0,0-1.061-0.45-1.247-0.322c-0.187,0.125-0.282,1.065-0.282,1.065
		L1895.994,377.458z"/>
	<path fill="#939598" d="M1882.197,407.066l0.099-1.023c0,0-1.061-0.448-1.247-0.322c-0.186,0.126-0.283,1.066-0.283,1.066
		L1882.197,407.066z"/>
	<path fill="#939598" d="M1884.26,387.444l0.102-1.021c0,0-1.062-0.45-1.249-0.323c-0.187,0.125-0.284,1.064-0.284,1.064
		L1884.26,387.444z"/>
	<polygon fill="#939598" points="1892.112,378.446 1891.04,379.835 1888.633,378.579 1890.928,377.199 	"/>
	<polygon fill="#939598" points="1886.564,382.151 1886.533,380.264 1885.715,379.647 1884.068,380.424 1884.501,382.41 	"/>
	<polygon fill="#939598" points="1921.406,398.711 1921.375,396.825 1920.559,396.208 1918.911,396.984 1919.344,398.97 	"/>
	<polygon fill="#939598" points="1885.314,399.532 1885.282,397.645 1884.469,397.029 1882.819,397.804 1883.253,399.791 	"/>
	<polygon fill="#939598" points="1898.971,381.047 1897.99,380.559 1897.452,380.816 1897.41,381.875 1898.552,382.183 	"/>
	<polygon fill="#939598" points="1888.884,402.576 1888.143,401.537 1889.12,398.812 1892.982,397.196 1892.098,400.562 
		1891.976,401.71 	"/>
	<polygon fill="#939598" points="1896.458,393.689 1897.891,394.765 1899.137,392.388 1896.454,391.465 	"/>
	<polygon fill="#939598" points="1889.7,394.735 1888.717,395.674 1890.341,396.901 1891.364,395.008 	"/>
	<polygon fill="#939598" points="1901.829,393.987 1903.062,392.003 1904.086,392.599 1904.436,394.663 1903.582,395.36 	"/>
	<polygon fill="#939598" points="1866.314,395.072 1867.549,393.088 1868.571,393.686 1868.921,395.75 1868.069,396.445 	"/>
	<polygon fill="#939598" points="1885.262,404.681 1886.496,402.696 1887.518,403.293 1887.867,405.356 1887.016,406.053 	"/>
	<polygon fill="#939598" points="1893.072,396.207 1893.282,394.428 1894.186,394.508 1895.101,395.827 1894.737,396.588 	"/>
	<polygon fill="#939598" points="1900.322,398.767 1901.818,396.674 1902.922,396.941 1903.08,399.004 1900.928,399.48 	"/>
	<polygon fill="#939598" points="1899.323,401.189 1896.295,400.118 1896.23,398.703 1898.65,397.801 1899.969,400.216 	"/>
	<path fill="#939598" d="M1898.562,404.856l0.302,0.982c0,0,1.15,0.008,1.273-0.18c0.125-0.188-0.144-1.093-0.144-1.093
		L1898.562,404.856z"/>
	<polygon fill="#939598" points="1901.771,402.457 1902.23,400.764 1904.936,401.002 1903.342,403.156 	"/>
	<polygon fill="#939598" points="1904.35,397.931 1905.104,399.661 1906.093,399.918 1907.316,398.571 1906.156,396.901 	"/>
	<polygon fill="#939598" points="1854.426,392.487 1854.885,390.795 1857.59,391.033 1855.996,393.187 	"/>
	<polygon fill="#939598" points="1859.593,390.467 1860.346,392.197 1861.335,392.455 1862.561,391.107 1861.4,389.438 	"/>
	<polygon fill="#939598" points="1894.438,402.681 1895.533,402.755 1895.932,402.312 1895.564,401.319 1894.391,401.472 	"/>
</g>
<g>
	<polygon fill="#939598" points="1885.823,367.386 1886.577,368.415 1885.637,371.155 1881.796,372.818 1882.637,369.442 
		1882.743,368.292 	"/>
	<polygon fill="#939598" points="1878.365,376.371 1876.918,375.315 1875.703,377.706 1878.398,378.594 	"/>
	<polygon fill="#939598" points="1885.108,375.237 1886.08,374.285 1884.439,373.079 1883.439,374.985 	"/>
	<polygon fill="#939598" points="1872.991,376.143 1871.782,378.144 1870.753,377.56 1870.377,375.5 1871.22,374.793 	"/>
	<polygon fill="#939598" points="1881.718,373.811 1881.532,375.592 1880.626,375.522 1879.695,374.217 1880.048,373.449 	"/>
	<polygon fill="#939598" points="1874.438,371.342 1872.967,373.454 1871.86,373.204 1871.675,371.142 1873.82,370.637 	"/>
	<polygon fill="#939598" points="1875.403,368.908 1878.444,369.94 1878.526,371.355 1876.119,372.289 1874.77,369.889 	"/>
	<path fill="#939598" d="M1876.114,365.231l-0.312-0.978c0,0-1.152,0.006-1.271,0.196c-0.124,0.188,0.156,1.09,0.156,1.09
		L1876.114,365.231z"/>
	<polygon fill="#939598" points="1872.938,367.672 1872.502,369.371 1869.794,369.169 1871.358,366.993 	"/>
	<polygon fill="#939598" points="1867.798,369.76 1867.024,368.039 1866.03,367.796 1864.823,369.159 1866.005,370.814 	"/>
	<polygon fill="#939598" points="1880.27,367.354 1879.174,367.293 1878.781,367.741 1879.16,368.73 1880.331,368.562 	"/>
	<polygon fill="#939598" points="1841.571,366.558 1842.194,368.238 1844.526,366.914 1842.77,364.686 	"/>
	<polygon fill="#939598" points="1822.197,371.909 1820.86,372.167 1821.562,374.079 1823.448,373.04 	"/>
	<polygon fill="#939598" points="1845.927,369.713 1848.038,368.711 1848.574,369.767 1847.755,371.691 1846.661,371.816 	"/>
	<polygon fill="#939598" points="1837.36,366.846 1838.499,365.461 1839.216,366.02 1839.273,367.623 1838.557,368.067 	"/>
	<polygon fill="#939598" points="1842.073,372.919 1844.465,371.968 1845.249,372.79 1844.266,374.611 1842.197,373.848 	"/>
	<polygon fill="#939598" points="1839.924,374.417 1837.956,371.879 1838.668,370.653 1841.192,371.203 1840.993,373.947 	"/>
	<polygon fill="#939598" points="1830.924,372.917 1828.956,370.379 1829.668,369.153 1832.192,369.703 1831.993,372.447 	"/>
	<path fill="#939598" d="M1837.302,377.091l-0.276,0.988c0,0,0.964,0.631,1.169,0.538c0.206-0.089,0.471-0.996,0.471-0.996
		L1837.302,377.091z"/>
	<polygon fill="#939598" points="1841.298,376.808 1842.599,375.632 1844.746,377.295 1842.241,378.245 	"/>
	<polygon fill="#939598" points="1846.738,377.901 1846.434,379.765 1847.129,380.516 1848.888,380.045 1848.814,378.013 	"/>
	<polygon fill="#939598" points="1835.011,373.029 1835.888,373.685 1836.464,373.528 1836.693,372.492 1835.624,371.987 	"/>
	<polygon fill="#939598" points="1881.716,359.983 1881.143,361.122 1878.276,361.531 1875.044,358.869 1878.434,358.08 
		1879.506,357.652 	"/>
	<polygon fill="#939598" points="1874.399,362.922 1875.691,363.353 1876.017,361.342 1873.865,361.322 	"/>
	<polygon fill="#939598" points="1874.126,359.252 1872.456,359.897 1872.105,359.061 1872.845,357.637 1873.688,357.602 	"/>
	<polygon fill="#939598" points="1879.213,355.021 1878.77,354.02 1878.192,353.874 1877.484,354.662 1878.168,355.628 	"/>
	<polygon fill="#939598" points="1889.084,362.905 1887.876,364.907 1886.845,364.321 1886.47,362.263 1887.312,361.556 	"/>
	<path fill="#939598" d="M1892.241,354.633l-0.312-0.978c0,0-1.15,0.006-1.271,0.196c-0.122,0.188,0.158,1.09,0.158,1.09
		L1892.241,354.633z"/>
	<polygon fill="#939598" points="1848.341,376.742 1848.037,375.502 1849.957,373.333 1854.142,373.268 1852.072,376.064 
		1851.532,377.086 	"/>
	<polygon fill="#939598" points="1858.67,371.298 1859.604,372.828 1861.642,371.084 1859.491,369.232 	"/>
	<polygon fill="#939598" points="1852.007,369.763 1850.744,370.271 1851.797,372.013 1853.451,370.634 	"/>
	<polygon fill="#939598" points="1866.159,364.064 1864.896,364.572 1865.95,366.313 1867.604,364.935 	"/>
	<polygon fill="#939598" points="1880.026,362.66 1878.765,363.167 1879.817,364.91 1881.472,363.531 	"/>
	<polygon fill="#939598" points="1863.548,373.567 1865.43,372.182 1866.159,373.115 1865.718,375.161 1864.667,375.492 	"/>
	<polygon fill="#939598" points="1854.591,372.38 1855.446,370.807 1856.256,371.216 1856.616,372.779 1855.996,373.353 	"/>
	<polygon fill="#939598" points="1860.374,377.448 1862.542,376.06 1863.467,376.715 1862.849,378.69 1860.673,378.335 	"/>
	<polygon fill="#939598" points="1869.153,363.514 1871.319,362.125 1872.244,362.782 1871.626,364.756 1869.45,364.4 	"/>
	<polygon fill="#939598" points="1858.55,379.327 1856.136,377.208 1856.6,375.87 1859.181,375.93 1859.51,378.663 	"/>
	<polygon fill="#939598" points="1859.05,388.994 1856.636,386.875 1857.1,385.537 1859.681,385.597 1860.01,388.33 	"/>
	<path fill="#939598" d="M1856.483,382.45l-0.085,1.023c0,0,1.065,0.436,1.251,0.306c0.186-0.127,0.27-1.068,0.27-1.068
		L1856.483,382.45z"/>
	<path fill="#939598" d="M1868.087,372.313l-0.087,1.022c0,0,1.067,0.437,1.253,0.307c0.185-0.127,0.271-1.068,0.271-1.068
		L1868.087,372.313z"/>
	<path fill="#939598" d="M1870.421,380.313l-0.087,1.022c0,0,1.067,0.437,1.253,0.307c0.185-0.127,0.271-1.068,0.271-1.068
		L1870.421,380.313z"/>
	<polygon fill="#939598" points="1860.354,381.412 1861.406,380.009 1863.83,381.234 1861.553,382.644 	"/>
	<polygon fill="#939598" points="1865.852,377.635 1865.907,379.522 1866.733,380.127 1868.37,379.33 1867.911,377.35 	"/>
	<polygon fill="#939598" points="1862.518,384.469 1862.573,386.355 1863.399,386.961 1865.036,386.164 1864.577,384.183 	"/>
	<polygon fill="#939598" points="1866.875,360.24 1866.933,362.126 1867.754,362.731 1869.395,361.935 1868.936,359.954 	"/>
	<polygon fill="#939598" points="1853.461,378.9 1854.447,379.376 1854.982,379.111 1855.011,378.052 1853.865,377.759 	"/>
	<polygon fill="#939598" points="1855.811,366.227 1854.362,365.169 1853.146,367.562 1855.842,368.451 	"/>
	<polygon fill="#939598" points="1862.553,365.093 1863.524,364.141 1861.884,362.935 1860.886,364.841 	"/>
	<polygon fill="#939598" points="1850.436,365.998 1849.229,367.998 1848.196,367.416 1847.819,365.356 1848.664,364.648 	"/>
	<polygon fill="#939598" points="1885.933,364.452 1884.724,366.453 1883.693,365.868 1883.317,363.809 1884.159,363.103 	"/>
	<polygon fill="#939598" points="1859.162,363.666 1858.976,365.446 1858.071,365.378 1857.139,364.071 1857.492,363.305 	"/>
	<polygon fill="#939598" points="1897.854,366.883 1897.417,368.581 1894.708,368.378 1896.274,366.204 	"/>
	<polygon fill="#939598" points="1892.713,368.97 1891.938,367.25 1890.945,367.005 1889.737,368.369 1890.919,370.022 	"/>
</g>
<g>
	<polygon fill="#939598" points="1931.796,357.482 1930.825,358.435 1932.466,359.641 1933.465,357.734 	"/>
	<path fill="#939598" d="M1894.508,356.115l0.312,0.978c0,0,1.153-0.006,1.272-0.196c0.123-0.188-0.156-1.09-0.156-1.09
		L1894.508,356.115z"/>
	<path fill="#939598" d="M1932.012,360.921l0.312,0.978c0,0,1.151-0.006,1.271-0.196c0.122-0.188-0.158-1.091-0.158-1.091
		L1932.012,360.921z"/>
	<polygon fill="#939598" points="1897.684,353.673 1898.121,351.975 1900.828,352.176 1899.264,354.353 	"/>
	<polygon fill="#939598" points="1903.074,350.96 1903.848,352.682 1904.842,352.925 1906.049,351.562 1904.867,349.906 	"/>
	<polygon fill="#939598" points="1890.354,353.991 1891.449,354.053 1891.842,353.604 1891.463,352.616 1890.291,352.784 	"/>
	<polygon fill="#939598" points="1936.928,360.965 1935.956,361.918 1937.596,363.124 1938.595,361.217 	"/>
	<polygon fill="#939598" points="1929.581,366.126 1930.788,364.125 1931.819,364.709 1932.194,366.768 1931.352,367.476 	"/>
	<polygon fill="#939598" points="1925.521,365.905 1925.709,364.125 1926.612,364.192 1927.545,365.499 1927.191,366.266 	"/>
	<polygon fill="#939598" points="1888.906,361.363 1889.48,360.224 1892.346,359.814 1895.578,362.477 1892.189,363.266 
		1891.117,363.693 	"/>
	<polygon fill="#939598" points="1886.564,356.4 1885.506,355.696 1885.402,352.802 1888.358,349.907 1888.779,353.365 
		1889.087,354.48 	"/>
	<polygon fill="#939598" points="1900.305,363.911 1900.02,365.682 1902.705,365.673 1902.268,362.87 	"/>
	<polygon fill="#939598" points="1896.223,358.424 1894.932,357.993 1894.605,360.003 1896.758,360.024 	"/>
	<polygon fill="#939598" points="1896.496,362.093 1898.166,361.448 1898.518,362.285 1897.777,363.709 1896.936,363.744 	"/>
	<polygon fill="#939598" points="1881.539,358.44 1882.746,356.439 1883.777,357.024 1884.152,359.083 1883.311,359.79 	"/>
	<path fill="#939598" d="M1878.381,366.712l0.312,0.978c0,0,1.151-0.006,1.271-0.196c0.123-0.188-0.158-1.09-0.158-1.09
		L1878.381,366.712z"/>
	<polygon fill="#939598" points="1911.952,350.047 1911.02,348.518 1908.98,350.261 1911.131,352.114 	"/>
	<polygon fill="#939598" points="1888.452,359.047 1887.52,357.518 1885.48,359.261 1887.631,361.114 	"/>
	<polygon fill="#939598" points="1890.596,358.686 1891.857,358.178 1890.805,356.436 1889.15,357.815 	"/>
	<polygon fill="#939598" points="1901.469,357.832 1899.303,359.221 1898.379,358.564 1898.996,356.589 1901.172,356.946 	"/>
	<path fill="#939598" d="M1900.727,368.681l0.087-1.025c0,0-1.066-0.434-1.252-0.306c-0.185,0.128-0.269,1.07-0.269,1.07
		L1900.727,368.681z"/>
	<polygon fill="#939598" points="1939.824,359.817 1939.77,357.931 1938.943,357.325 1937.307,358.123 1937.765,360.103 	"/>
	<polygon fill="#939598" points="1907.355,364.104 1906.6,363.074 1907.543,360.337 1911.383,358.671 1910.542,362.049 
		1910.436,363.198 	"/>
	<polygon fill="#939598" points="1914.812,355.119 1916.26,356.176 1917.475,353.783 1914.78,352.895 	"/>
	<path fill="#939598" d="M1917.062,366.258l0.313,0.979c0,0,1.15-0.007,1.271-0.197c0.123-0.188-0.157-1.091-0.157-1.091
		L1917.062,366.258z"/>
	<polygon fill="#939598" points="1920.24,363.817 1920.677,362.118 1923.385,362.321 1921.818,364.496 	"/>
	<polygon fill="#939598" points="1912.285,362.137 1913.381,362.197 1913.773,361.75 1913.395,360.76 1912.222,360.928 	"/>
</g>
<g>
	<polygon fill="#939598" points="1807.562,379.294 1808.533,378.342 1806.893,377.136 1805.895,379.043 	"/>
	<polygon fill="#939598" points="1797.105,383.84 1800.146,384.873 1800.229,386.288 1797.822,387.221 1796.473,384.821 	"/>
	<polygon fill="#939598" points="1820.307,370.94 1819.87,372.639 1817.161,372.436 1818.729,370.262 	"/>
</g>
<g>
	<polygon fill="#939598" points="1899.881,376.371 1901.328,375.315 1902.543,377.706 1899.848,378.594 	"/>
	<polygon fill="#939598" points="1893.138,375.237 1892.166,374.285 1893.807,373.079 1894.806,374.985 	"/>
	<polygon fill="#939598" points="1948.512,366.91 1947.541,365.957 1949.18,364.751 1950.18,366.658 	"/>
	<polygon fill="#939598" points="1939.42,363.863 1938.449,362.911 1940.09,361.705 1941.089,363.612 	"/>
	<polygon fill="#939598" points="1905.255,376.143 1906.464,378.144 1907.493,377.56 1907.869,375.5 1907.026,374.793 	"/>
	<polygon fill="#939598" points="1896.528,373.811 1896.714,375.592 1897.62,375.522 1898.551,374.217 1898.198,373.449 	"/>
	<polygon fill="#939598" points="1903.811,371.342 1905.279,373.454 1906.386,373.204 1906.571,371.142 1904.426,370.637 	"/>
	<polygon fill="#939598" points="1902.843,368.908 1899.802,369.94 1899.72,371.355 1902.127,372.289 1903.477,369.889 	"/>
	<path fill="#939598" d="M1941.011,361.174l0.312-0.978c0,0,1.151,0.006,1.271,0.196c0.122,0.188-0.157,1.091-0.157,1.091
		L1941.011,361.174z"/>
	<polygon fill="#939598" points="1905.308,367.672 1905.744,369.371 1908.452,369.169 1906.888,366.993 	"/>
	<polygon fill="#939598" points="1910.448,369.76 1911.222,368.039 1912.216,367.796 1913.423,369.159 1912.241,370.814 	"/>
	<polygon fill="#939598" points="1936.675,366.558 1936.052,368.238 1933.72,366.914 1935.477,364.686 	"/>
	<polygon fill="#939598" points="1942.924,363.784 1944.261,364.042 1943.559,365.954 1941.673,364.915 	"/>
	<polygon fill="#939598" points="1932.319,369.713 1930.208,368.711 1929.672,369.767 1930.491,371.691 1931.585,371.816 	"/>
	<polygon fill="#939598" points="1940.886,366.846 1939.747,365.461 1939.03,366.02 1938.973,367.623 1939.689,368.067 	"/>
	<polygon fill="#939598" points="1936.173,372.919 1933.781,371.968 1932.997,372.79 1933.98,374.611 1936.049,373.848 	"/>
	<polygon fill="#939598" points="1938.322,374.417 1940.29,371.879 1939.578,370.653 1937.054,371.203 1937.253,373.947 	"/>
	<path fill="#939598" d="M1940.944,377.091l0.276,0.988c0,0-0.964,0.631-1.169,0.538c-0.206-0.089-0.471-0.996-0.471-0.996
		L1940.944,377.091z"/>
	<polygon fill="#939598" points="1936.948,376.808 1935.646,375.632 1933.5,377.295 1936.005,378.245 	"/>
	<polygon fill="#939598" points="1927.781,381.308 1926.48,380.132 1924.333,381.795 1926.838,382.745 	"/>
	<polygon fill="#939598" points="1931.508,377.901 1931.812,379.765 1931.117,380.516 1929.358,380.045 1929.432,378.013 	"/>
	<polygon fill="#939598" points="1943.235,373.029 1942.358,373.685 1941.782,373.528 1941.553,372.492 1942.622,371.987 	"/>
	<polygon fill="#939598" points="1942.961,368.348 1944.408,367.291 1945.624,369.683 1942.929,370.571 	"/>
	<polygon fill="#939598" points="1948.443,370.525 1945.402,371.557 1945.321,372.971 1947.729,373.905 1949.077,371.506 	"/>
	<polygon fill="#939598" points="1907.928,357.435 1907.645,355.664 1910.329,355.673 1909.891,358.476 	"/>
	<polygon fill="#939598" points="1903.847,362.922 1902.555,363.353 1902.229,361.342 1904.381,361.322 	"/>
	<polygon fill="#939598" points="1896.347,371.755 1895.055,372.187 1894.729,370.176 1896.881,370.155 	"/>
	<polygon fill="#939598" points="1904.12,359.252 1905.79,359.897 1906.141,359.061 1905.401,357.637 1904.561,357.602 	"/>
	<polygon fill="#939598" points="1902.614,352.718 1902.146,355.896 1903.37,356.613 1905.298,354.896 1903.777,352.602 	"/>
	<polygon fill="#939598" points="1894.354,356.523 1895.131,354.802 1896.124,354.559 1897.33,355.921 1896.148,357.576 	"/>
	<polygon fill="#939598" points="1929.905,376.742 1930.209,375.502 1928.289,373.333 1924.104,373.268 1926.174,376.064 
		1926.714,377.086 	"/>
	<polygon fill="#939598" points="1919.576,371.298 1918.643,372.828 1916.604,371.084 1918.755,369.232 	"/>
	<polygon fill="#939598" points="1926.239,369.763 1927.502,370.271 1926.449,372.013 1924.795,370.634 	"/>
	<polygon fill="#939598" points="1912.087,364.064 1913.351,364.572 1912.296,366.313 1910.645,364.935 	"/>
	<polygon fill="#939598" points="1914.698,373.567 1912.816,372.182 1912.087,373.115 1912.528,375.161 1913.579,375.492 	"/>
	<polygon fill="#939598" points="1923.655,372.38 1922.8,370.807 1921.99,371.216 1921.63,372.779 1922.25,373.353 	"/>
	<polygon fill="#939598" points="1917.872,377.448 1915.704,376.06 1914.779,376.715 1915.396,378.69 1917.573,378.335 	"/>
	<polygon fill="#939598" points="1919.696,379.327 1922.11,377.208 1921.646,375.87 1919.064,375.93 1918.736,378.663 	"/>
	<path fill="#939598" d="M1921.763,382.45l0.085,1.023c0,0-1.065,0.436-1.251,0.306c-0.186-0.127-0.27-1.068-0.27-1.068
		L1921.763,382.45z"/>
	<path fill="#939598" d="M1908.351,352.665l0.087,1.025c0,0-1.066,0.434-1.252,0.306s-0.27-1.07-0.27-1.07L1908.351,352.665z"/>
	<path fill="#939598" d="M1910.159,372.313l0.087,1.022c0,0-1.067,0.437-1.253,0.307c-0.185-0.127-0.271-1.068-0.271-1.068
		L1910.159,372.313z"/>
	<polygon fill="#939598" points="1917.895,381.412 1916.84,380.009 1914.416,381.234 1916.693,382.644 	"/>
	<polygon fill="#939598" points="1912.395,377.635 1912.339,379.522 1911.513,380.127 1909.876,379.33 1910.335,377.35 	"/>
	<polygon fill="#939598" points="1947.448,361.529 1947.393,363.415 1946.567,364.021 1944.931,363.223 1945.389,361.243 	"/>
	<polygon fill="#939598" points="1924.785,378.9 1923.799,379.376 1923.264,379.111 1923.235,378.052 1924.381,377.759 	"/>
	<polygon fill="#939598" points="1914.979,357.242 1914.224,358.271 1915.166,361.009 1919.007,362.674 1918.166,359.296 
		1918.059,358.148 	"/>
	<polygon fill="#939598" points="1922.438,366.227 1923.884,365.169 1925.099,367.562 1922.404,368.451 	"/>
	<polygon fill="#939598" points="1921.604,385.56 1923.05,384.503 1924.265,386.896 1921.57,387.784 	"/>
	<polygon fill="#939598" points="1915.693,365.093 1914.722,364.141 1916.362,362.935 1917.36,364.841 	"/>
	<polygon fill="#939598" points="1914.062,368.373 1915.27,370.373 1916.3,369.791 1916.677,367.731 1915.832,367.023 	"/>
	<polygon fill="#939598" points="1891.188,365.077 1892.396,367.078 1893.428,366.493 1893.804,364.434 1892.962,363.728 	"/>
	<polygon fill="#939598" points="1887.98,372.619 1889.189,374.62 1890.22,374.035 1890.596,371.976 1889.754,371.27 	"/>
	<polygon fill="#939598" points="1911.384,355.091 1912.593,357.091 1913.622,356.507 1913.998,354.449 1913.155,353.741 	"/>
	<polygon fill="#939598" points="1926.366,361.199 1927.835,363.311 1928.942,363.059 1929.127,360.998 1926.98,360.494 	"/>
	<polygon fill="#939598" points="1925.399,358.765 1922.357,359.796 1922.275,361.21 1924.683,362.143 1926.032,359.746 	"/>
	<polygon fill="#939598" points="1926.989,358.029 1927.426,359.728 1930.134,359.524 1928.567,357.35 	"/>
	<polygon fill="#939598" points="1920.534,357.209 1921.63,357.149 1922.021,357.596 1921.643,358.586 1920.471,358.418 	"/>
</g>
<g>
	<polygon fill="#939598" points="1981.795,387.751 1984.099,388.899 1984.948,388.146 1984.121,386.25 1981.996,386.837 	"/>
	<polygon fill="#939598" points="1964.902,373.33 1962.73,375.695 1963.337,376.976 1965.898,376.638 1965.93,373.887 	"/>
	<path fill="#939598" d="M1967.514,373.696l-0.193-1.008c0,0,1.013-0.548,1.21-0.439c0.196,0.106,0.386,1.032,0.386,1.032
		L1967.514,373.696z"/>
	<polygon fill="#939598" points="1960.398,367.854 1958.868,368.787 1957.855,366.301 1960.617,365.641 	"/>
	<polygon fill="#939598" points="1963.524,370.687 1963.489,368.896 1962.58,368.889 1961.543,370.112 1961.83,370.906 	"/>
	<polygon fill="#939598" points="1958.034,372.728 1956.745,370.5 1955.621,370.659 1955.265,372.698 1957.361,373.379 	"/>
	<polygon fill="#939598" points="1958.794,375.234 1961.911,374.46 1962.109,373.058 1959.79,371.926 1958.244,374.204 	"/>
	<polygon fill="#939598" points="1953.447,371.972 1952.532,373.621 1951.521,373.782 1950.432,372.322 1951.749,370.772 	"/>
	<polygon fill="#939598" points="1952.607,367.036 1952.82,365.161 1953.693,364.626 1955.258,365.558 1954.636,367.492 	"/>
</g>
<g>
	<polygon fill="#939598" points="1926.783,392.14 1926.043,391.102 1927.02,388.374 1930.882,386.761 1929.997,390.126 
		1929.876,391.274 	"/>
	<polygon fill="#939598" points="1934.357,383.253 1935.791,384.328 1937.037,381.952 1934.354,381.029 	"/>
	<polygon fill="#939598" points="1927.601,384.299 1926.616,385.239 1928.241,386.466 1929.265,384.572 	"/>
	<polygon fill="#939598" points="1982.862,393.344 1981.879,394.284 1983.502,395.511 1984.526,393.618 	"/>
	<polygon fill="#939598" points="1973.73,396.272 1972.748,397.212 1974.373,398.439 1975.396,396.545 	"/>
	<polygon fill="#939598" points="1939.729,383.55 1940.963,381.565 1941.985,382.163 1942.334,384.227 1941.482,384.923 	"/>
	<polygon fill="#939598" points="1930.973,385.77 1931.181,383.991 1932.086,384.072 1933,385.39 1932.638,386.152 	"/>
	<polygon fill="#939598" points="1938.221,388.332 1939.718,386.239 1940.821,386.504 1940.979,388.568 1938.828,389.045 	"/>
	<polygon fill="#939598" points="1937.223,390.754 1934.195,389.682 1934.132,388.266 1936.551,387.364 1937.869,389.781 	"/>
	<path fill="#939598" d="M1936.464,394.421l0.298,0.981c0,0,1.153,0.009,1.275-0.179c0.126-0.187-0.143-1.092-0.143-1.092
		L1936.464,394.421z"/>
	<path fill="#939598" d="M1973.902,399.714l0.299,0.982c0,0,1.151,0.009,1.274-0.18c0.124-0.187-0.145-1.093-0.145-1.093
		L1973.902,399.714z"/>
	<path fill="#939598" d="M1989.027,394.339l0.299,0.982c0,0,1.151,0.009,1.274-0.179c0.124-0.187-0.145-1.093-0.145-1.093
		L1989.027,394.339z"/>
	<polygon fill="#939598" points="1939.671,392.021 1940.13,390.328 1942.835,390.565 1941.242,392.721 	"/>
	<polygon fill="#939598" points="1944.839,390 1945.59,391.731 1946.581,391.987 1947.805,390.64 1946.646,388.969 	"/>
	<polygon fill="#939598" points="1932.338,392.244 1933.432,392.319 1933.83,391.876 1933.464,390.883 1932.291,391.036 	"/>
	<polygon fill="#939598" points="1982.242,390.307 1982.287,391.583 1979.968,393.317 1975.855,392.534 1978.451,390.213 
		1979.186,389.324 	"/>
	<polygon fill="#939598" points="1971.021,393.543 1970.42,391.854 1968.071,393.148 1969.799,395.398 	"/>
	<polygon fill="#939598" points="1977.234,396.397 1978.574,396.156 1977.896,394.236 1975.998,395.25 	"/>
	<polygon fill="#939598" points="1966.707,390.331 1964.583,391.305 1964.061,390.243 1964.905,388.33 1966,388.218 	"/>
	<polygon fill="#939598" points="1975.235,393.31 1974.079,394.679 1973.369,394.111 1973.333,392.507 1974.056,392.072 	"/>
	<polygon fill="#939598" points="1970.602,387.175 1968.198,388.095 1967.425,387.263 1968.432,385.455 1970.49,386.245 	"/>
	<polygon fill="#939598" points="1972.771,385.706 1974.706,388.269 1973.979,389.486 1971.461,388.903 1971.695,386.161 	"/>
	<path fill="#939598" d="M1975.427,383.066l0.291-0.985c0,0-0.956-0.643-1.162-0.553c-0.207,0.086-0.482,0.99-0.482,0.99
		L1975.427,383.066z"/>
	<path fill="#939598" d="M1968.927,378.816l0.291-0.985c0,0-0.956-0.643-1.162-0.553c-0.207,0.086-0.482,0.99-0.482,0.99
		L1968.927,378.816z"/>
	<polygon fill="#939598" points="1971.428,383.297 1970.111,384.456 1967.986,382.765 1970.503,381.848 	"/>
	<polygon fill="#939598" points="1966.002,382.133 1966.331,380.273 1965.646,379.514 1963.881,379.962 1963.928,381.994 	"/>
	<polygon fill="#939598" points="1977.666,387.157 1976.797,386.49 1976.219,386.64 1975.976,387.672 1977.039,388.191 	"/>
	<polygon fill="#939598" points="1978.001,407.664 1977.26,406.625 1978.236,403.898 1982.1,402.284 1981.214,405.65 
		1981.092,406.797 	"/>
	<polygon fill="#939598" points="1985.574,398.775 1987.008,399.852 1988.254,397.475 1985.57,396.552 	"/>
	<polygon fill="#939598" points="1978.817,399.822 1977.834,400.762 1979.457,401.989 1980.48,400.095 	"/>
	<polygon fill="#939598" points="1988.965,399.734 1990.2,397.749 1991.223,398.347 1991.571,400.41 1990.72,401.107 	"/>
	<polygon fill="#939598" points="1982.189,401.294 1982.396,399.515 1983.303,399.595 1984.217,400.913 1983.854,401.675 	"/>
	<polygon fill="#939598" points="1987.458,403.855 1988.955,401.762 1990.059,402.028 1990.218,404.092 1988.064,404.568 	"/>
	<polygon fill="#939598" points="1986.459,406.276 1983.432,405.205 1983.369,403.791 1985.787,402.888 1987.105,405.304 	"/>
	<polygon fill="#939598" points="1992.096,403.544 1992.848,405.274 1993.838,405.532 1995.062,404.184 1993.902,402.514 	"/>
	<polygon fill="#939598" points="1970.466,403.467 1971.9,404.543 1973.145,402.167 1970.462,401.243 	"/>
	<polygon fill="#939598" points="1963.708,404.514 1962.725,405.453 1964.35,406.68 1965.372,404.787 	"/>
	<polygon fill="#939598" points="1973.156,404.784 1974.389,402.799 1975.412,403.397 1975.761,405.46 1974.909,406.157 	"/>
	<polygon fill="#939598" points="1967.08,405.985 1967.291,404.207 1968.193,404.286 1969.108,405.605 1968.745,406.367 	"/>
	<polygon fill="#939598" points="1950.828,406.059 1952.263,407.133 1953.508,404.758 1950.825,403.835 	"/>
	<polygon fill="#939598" points="1930.795,399.596 1931.383,398.465 1934.254,398.092 1937.451,400.796 1934.052,401.542 
		1932.975,401.955 	"/>
	<polygon fill="#939598" points="1942.158,402.292 1941.852,404.059 1944.537,404.085 1944.135,401.276 	"/>
	<polygon fill="#939598" points="1938.148,396.752 1936.862,396.304 1936.511,398.311 1938.662,398.359 	"/>
	<polygon fill="#939598" points="1938.375,400.425 1940.053,399.802 1940.393,400.643 1939.635,402.057 1938.792,402.081 	"/>
	<polygon fill="#939598" points="1936.784,406.939 1936.358,403.755 1937.59,403.054 1939.495,404.797 1937.945,407.07 	"/>
	<path fill="#939598" d="M1920.2,404.809l0.3,0.982c0,0,1.152,0.009,1.274-0.18c0.125-0.188-0.145-1.093-0.145-1.093L1920.2,404.809
		z"/>
	<polygon fill="#939598" points="1916.075,405.271 1917.168,405.347 1917.567,404.904 1917.201,403.91 1916.027,404.062 	"/>
	<polygon fill="#939598" points="1964.385,383.271 1964.672,384.515 1962.725,386.659 1958.539,386.67 1960.645,383.901 
		1961.198,382.886 	"/>
	<polygon fill="#939598" points="1953.985,388.581 1953.072,387.039 1951.012,388.756 1953.138,390.636 	"/>
	<polygon fill="#939598" points="1960.629,390.202 1961.896,389.711 1960.867,387.956 1959.195,389.312 	"/>
	<polygon fill="#939598" points="1946.403,395.717 1947.673,395.226 1946.642,393.471 1944.971,394.828 	"/>
	<polygon fill="#939598" points="1932.52,396.941 1933.787,396.45 1932.757,394.694 1931.085,396.052 	"/>
	<polygon fill="#939598" points="1949.138,386.249 1947.238,387.61 1946.521,386.667 1946.988,384.626 1948.043,384.309 	"/>
	<polygon fill="#939598" points="1971.771,398.699 1969.869,400.061 1969.153,399.118 1969.621,397.077 1970.675,396.759 	"/>
	<polygon fill="#939598" points="1958.078,387.552 1957.203,389.114 1956.398,388.694 1956.059,387.127 1956.686,386.561 	"/>
	<polygon fill="#939598" points="1952.361,382.41 1950.176,383.77 1949.26,383.102 1949.903,381.135 1952.074,381.519 	"/>
	<polygon fill="#939598" points="1943.402,396.229 1941.219,397.589 1940.302,396.92 1940.946,394.954 1943.116,395.338 	"/>
	<polygon fill="#939598" points="1954.21,380.555 1956.597,382.704 1956.115,384.037 1953.535,383.943 1953.241,381.206 	"/>
	<polygon fill="#939598" points="1944.21,374.555 1946.597,376.704 1946.115,378.037 1943.535,377.943 1943.241,375.206 	"/>
	<path fill="#939598" d="M1956.316,377.458l0.099-1.022c0,0-1.062-0.45-1.247-0.322c-0.187,0.125-0.283,1.065-0.283,1.065
		L1956.316,377.458z"/>
	<path fill="#939598" d="M1954.316,369.958l0.099-1.022c0,0-1.062-0.45-1.247-0.322c-0.187,0.125-0.283,1.065-0.283,1.065
		L1954.316,369.958z"/>
	<path fill="#939598" d="M1942.52,407.066l0.1-1.023c0,0-1.062-0.448-1.247-0.322s-0.283,1.066-0.283,1.066L1942.52,407.066z"/>
	<path fill="#939598" d="M1944.582,387.444l0.101-1.021c0,0-1.062-0.45-1.249-0.323c-0.186,0.125-0.283,1.064-0.283,1.064
		L1944.582,387.444z"/>
	<polygon fill="#939598" points="1952.436,378.446 1951.362,379.835 1948.955,378.579 1951.25,377.199 	"/>
	<polygon fill="#939598" points="1946.887,382.151 1946.855,380.264 1946.037,379.647 1944.391,380.424 1944.823,382.41 	"/>
	<polygon fill="#939598" points="1981.729,398.711 1981.697,396.825 1980.881,396.208 1979.233,396.984 1979.666,398.97 	"/>
	<polygon fill="#939598" points="1987.729,392.211 1987.697,390.325 1986.881,389.708 1985.233,390.484 1985.666,392.47 	"/>
	<polygon fill="#939598" points="1945.638,399.532 1945.604,397.645 1944.791,397.029 1943.142,397.804 1943.575,399.791 	"/>
	<polygon fill="#939598" points="1959.293,381.047 1958.312,380.559 1957.774,380.816 1957.732,381.875 1958.874,382.183 	"/>
	<polygon fill="#939598" points="1949.206,402.576 1948.465,401.537 1949.442,398.812 1953.305,397.196 1952.42,400.562 
		1952.298,401.71 	"/>
	<polygon fill="#939598" points="1956.78,393.689 1958.213,394.765 1959.459,392.388 1956.776,391.465 	"/>
	<polygon fill="#939598" points="1950.021,394.735 1949.039,395.674 1950.663,396.901 1951.688,395.008 	"/>
	<polygon fill="#939598" points="1962.151,393.987 1963.385,392.003 1964.408,392.599 1964.758,394.663 1963.904,395.36 	"/>
	<polygon fill="#939598" points="1926.637,395.072 1927.871,393.088 1928.895,393.686 1929.243,395.75 1928.392,396.445 	"/>
	<polygon fill="#939598" points="1945.584,404.681 1946.818,402.696 1947.84,403.293 1948.189,405.356 1947.338,406.053 	"/>
	<polygon fill="#939598" points="1953.395,396.207 1953.604,394.428 1954.508,394.508 1955.423,395.827 1955.061,396.588 	"/>
	<polygon fill="#939598" points="1960.645,398.767 1962.141,396.674 1963.244,396.941 1963.402,399.004 1961.25,399.48 	"/>
	<polygon fill="#939598" points="1959.646,401.189 1956.617,400.118 1956.554,398.703 1958.973,397.801 1960.291,400.216 	"/>
	<path fill="#939598" d="M1958.885,404.856l0.303,0.982c0,0,1.15,0.008,1.273-0.18c0.125-0.188-0.144-1.093-0.144-1.093
		L1958.885,404.856z"/>
	<path fill="#939598" d="M1927.136,400.046l0.3,0.983c0,0,1.152,0.009,1.275-0.181c0.124-0.187-0.145-1.093-0.145-1.093
		L1927.136,400.046z"/>
	<polygon fill="#939598" points="1962.094,402.457 1962.553,400.764 1965.258,401.002 1963.664,403.156 	"/>
	<polygon fill="#939598" points="1964.672,397.931 1965.425,399.661 1966.415,399.918 1967.639,398.571 1966.479,396.901 	"/>
	<polygon fill="#939598" points="1914.748,392.487 1915.207,390.795 1917.912,391.033 1916.318,393.187 	"/>
	<polygon fill="#939598" points="1919.915,390.467 1920.668,392.197 1921.657,392.455 1922.883,391.107 1921.723,389.438 	"/>
	<polygon fill="#939598" points="1954.761,402.681 1955.855,402.755 1956.254,402.312 1955.887,401.319 1954.713,401.472 	"/>
</g>
<g>
	<polygon fill="#939598" points="1803.347,392.14 1802.605,391.102 1803.583,388.374 1807.445,386.761 1806.561,390.126 
		1806.439,391.274 	"/>
	<polygon fill="#939598" points="1810.921,383.253 1812.354,384.328 1813.601,381.952 1810.917,381.029 	"/>
	<polygon fill="#939598" points="1804.164,384.299 1803.18,385.239 1804.805,386.466 1805.828,384.572 	"/>
	<polygon fill="#939598" points="1859.426,393.344 1858.442,394.284 1860.064,395.511 1861.09,393.618 	"/>
	<polygon fill="#939598" points="1850.295,396.272 1849.312,397.212 1850.938,398.439 1851.96,396.545 	"/>
	<polygon fill="#939598" points="1816.292,383.55 1817.526,381.565 1818.549,382.163 1818.896,384.227 1818.046,384.923 	"/>
	<polygon fill="#939598" points="1807.536,385.77 1807.744,383.991 1808.649,384.072 1809.562,385.39 1809.201,386.152 	"/>
	<polygon fill="#939598" points="1814.784,388.332 1816.281,386.239 1817.385,386.504 1817.543,388.568 1815.392,389.045 	"/>
	<polygon fill="#939598" points="1813.786,390.754 1810.759,389.682 1810.695,388.266 1813.114,387.364 1814.433,389.781 	"/>
	<path fill="#939598" d="M1813.027,394.421l0.298,0.981c0,0,1.152,0.009,1.274-0.179c0.126-0.187-0.143-1.092-0.143-1.092
		L1813.027,394.421z"/>
	<path fill="#939598" d="M1850.466,399.714l0.299,0.982c0,0,1.152,0.009,1.275-0.18c0.124-0.187-0.146-1.093-0.146-1.093
		L1850.466,399.714z"/>
	<polygon fill="#939598" points="1816.234,392.021 1816.693,390.328 1819.398,390.565 1817.806,392.721 	"/>
	<polygon fill="#939598" points="1821.402,390 1822.153,391.731 1823.145,391.987 1824.368,390.64 1823.209,388.969 	"/>
	<polygon fill="#939598" points="1808.901,392.244 1809.995,392.319 1810.395,391.876 1810.027,390.883 1808.854,391.036 	"/>
	<polygon fill="#939598" points="1858.806,390.307 1858.851,391.583 1856.531,393.317 1852.419,392.534 1855.015,390.213 
		1855.749,389.324 	"/>
	<polygon fill="#939598" points="1847.585,393.543 1846.983,391.854 1844.635,393.148 1846.362,395.398 	"/>
	<polygon fill="#939598" points="1861.335,398.418 1860.733,396.729 1858.385,398.023 1860.112,400.273 	"/>
	<polygon fill="#939598" points="1853.798,396.397 1855.138,396.156 1854.46,394.236 1852.562,395.25 	"/>
	<polygon fill="#939598" points="1843.271,390.331 1841.146,391.305 1840.624,390.243 1841.469,388.33 1842.562,388.218 	"/>
	<polygon fill="#939598" points="1851.799,393.31 1850.643,394.679 1849.933,394.111 1849.896,392.507 1850.619,392.072 	"/>
	<polygon fill="#939598" points="1847.165,387.175 1844.762,388.095 1843.988,387.263 1844.995,385.455 1847.054,386.245 	"/>
	<polygon fill="#939598" points="1849.334,385.706 1851.27,388.269 1850.541,389.486 1848.024,388.903 1848.259,386.161 	"/>
	<path fill="#939598" d="M1851.99,383.066l0.291-0.985c0,0-0.956-0.643-1.162-0.553c-0.207,0.086-0.483,0.99-0.483,0.99
		L1851.99,383.066z"/>
	<polygon fill="#939598" points="1847.991,383.297 1846.675,384.456 1844.55,382.765 1847.066,381.848 	"/>
	<polygon fill="#939598" points="1842.564,382.133 1842.895,380.273 1842.209,379.514 1840.444,379.962 1840.491,381.994 	"/>
	<polygon fill="#939598" points="1854.229,387.157 1853.36,386.49 1852.782,386.64 1852.539,387.672 1853.604,388.191 	"/>
	<polygon fill="#939598" points="1854.564,407.664 1853.823,406.625 1854.8,403.898 1858.663,402.284 1857.777,405.65 
		1857.655,406.797 	"/>
	<polygon fill="#939598" points="1855.381,399.822 1854.396,400.762 1856.021,401.989 1857.045,400.095 	"/>
	<polygon fill="#939598" points="1865.528,399.734 1866.764,397.749 1867.786,398.347 1868.135,400.41 1867.283,401.107 	"/>
	<polygon fill="#939598" points="1864.021,403.855 1865.52,401.762 1866.622,402.028 1866.781,404.092 1864.628,404.568 	"/>
	<polygon fill="#939598" points="1868.659,403.544 1869.411,405.274 1870.401,405.532 1871.627,404.184 1870.466,402.514 	"/>
	<polygon fill="#939598" points="1847.029,403.467 1848.464,404.543 1849.708,402.167 1847.025,401.243 	"/>
	<polygon fill="#939598" points="1840.271,404.514 1839.288,405.453 1840.913,406.68 1841.936,404.787 	"/>
	<polygon fill="#939598" points="1849.72,404.784 1850.952,402.799 1851.976,403.397 1852.324,405.46 1851.473,406.157 	"/>
	<polygon fill="#939598" points="1843.645,405.985 1843.854,404.207 1844.757,404.286 1845.672,405.605 1845.309,406.367 	"/>
	<polygon fill="#939598" points="1827.392,406.059 1828.826,407.133 1830.071,404.758 1827.389,403.835 	"/>
	<polygon fill="#939598" points="1807.358,399.596 1807.946,398.465 1810.817,398.092 1814.015,400.796 1810.615,401.542 
		1809.538,401.955 	"/>
	<polygon fill="#939598" points="1818.722,402.292 1818.415,404.059 1821.101,404.085 1820.698,401.276 	"/>
	<polygon fill="#939598" points="1814.712,396.752 1813.426,396.304 1813.074,398.311 1815.226,398.359 	"/>
	<polygon fill="#939598" points="1814.938,400.425 1816.616,399.802 1816.956,400.643 1816.198,402.057 1815.355,402.081 	"/>
	<polygon fill="#939598" points="1813.348,406.939 1812.922,403.755 1814.153,403.054 1816.059,404.797 1814.509,407.07 	"/>
	<polygon fill="#939598" points="1809.797,404.589 1810.229,405.597 1810.802,405.75 1811.521,404.971 1810.85,403.996 	"/>
	<polygon fill="#939598" points="1787.082,405.168 1786.343,404.129 1787.32,401.402 1791.183,399.789 1790.298,403.154 
		1790.176,404.302 	"/>
	<polygon fill="#939598" points="1794.658,396.28 1796.092,397.355 1797.337,394.979 1794.653,394.057 	"/>
	<polygon fill="#939598" points="1787.901,397.327 1786.917,398.266 1788.541,399.493 1789.564,397.6 	"/>
	<polygon fill="#939598" points="1800.028,396.578 1801.263,394.593 1802.286,395.191 1802.635,397.254 1801.782,397.951 	"/>
	<polygon fill="#939598" points="1791.271,398.797 1791.48,397.019 1792.386,397.1 1793.301,398.417 1792.938,399.18 	"/>
	<polygon fill="#939598" points="1798.521,401.359 1800.02,399.267 1801.122,399.532 1801.279,401.596 1799.128,402.072 	"/>
	<polygon fill="#939598" points="1797.521,403.782 1794.495,402.71 1794.432,401.294 1796.85,400.391 1798.169,402.809 	"/>
	<path fill="#939598" d="M1796.764,404.809l0.301,0.982c0,0,1.151,0.009,1.273-0.18c0.125-0.188-0.144-1.093-0.144-1.093
		L1796.764,404.809z"/>
	<polygon fill="#939598" points="1799.971,405.048 1800.43,403.356 1803.136,403.593 1801.541,405.748 	"/>
	<polygon fill="#939598" points="1805.138,403.027 1805.892,404.758 1806.882,405.015 1808.105,403.668 1806.945,401.998 	"/>
	<polygon fill="#939598" points="1792.639,405.271 1793.73,405.347 1794.131,404.904 1793.765,403.91 1792.591,404.062 	"/>
	<polygon fill="#939598" points="1840.948,383.271 1841.235,384.515 1839.288,386.659 1835.104,386.67 1837.208,383.901 
		1837.762,382.886 	"/>
	<polygon fill="#939598" points="1830.549,388.581 1829.636,387.039 1827.575,388.756 1829.701,390.636 	"/>
	<polygon fill="#939598" points="1837.192,390.202 1838.461,389.711 1837.431,387.956 1835.759,389.312 	"/>
	<polygon fill="#939598" points="1822.967,395.717 1824.236,395.226 1823.205,393.471 1821.534,394.828 	"/>
	<polygon fill="#939598" points="1809.082,396.941 1810.351,396.45 1809.32,394.694 1807.648,396.052 	"/>
	<polygon fill="#939598" points="1825.701,386.249 1823.802,387.61 1823.084,386.667 1823.552,384.626 1824.605,384.309 	"/>
	<polygon fill="#939598" points="1848.334,398.699 1846.433,400.061 1845.717,399.118 1846.186,397.077 1847.238,396.759 	"/>
	<polygon fill="#939598" points="1834.642,387.552 1833.767,389.114 1832.962,388.694 1832.622,387.127 1833.249,386.561 	"/>
	<polygon fill="#939598" points="1828.925,382.41 1826.739,383.77 1825.823,383.102 1826.467,381.135 1828.638,381.519 	"/>
	<polygon fill="#939598" points="1824.8,376.785 1822.614,378.145 1821.698,377.477 1822.342,375.51 1824.513,375.894 	"/>
	<polygon fill="#939598" points="1819.966,396.229 1817.782,397.589 1816.865,396.92 1817.51,394.954 1819.68,395.338 	"/>
	<polygon fill="#939598" points="1830.773,380.555 1833.16,382.704 1832.679,384.037 1830.099,383.943 1829.805,381.206 	"/>
	<path fill="#939598" d="M1832.88,377.458l0.099-1.022c0,0-1.061-0.45-1.246-0.322c-0.188,0.125-0.283,1.065-0.283,1.065
		L1832.88,377.458z"/>
	<path fill="#939598" d="M1819.083,407.066l0.099-1.023c0,0-1.061-0.448-1.246-0.322c-0.187,0.126-0.283,1.066-0.283,1.066
		L1819.083,407.066z"/>
	<path fill="#939598" d="M1821.146,387.444l0.101-1.021c0,0-1.062-0.45-1.249-0.323c-0.187,0.125-0.284,1.064-0.284,1.064
		L1821.146,387.444z"/>
	<polygon fill="#939598" points="1828.998,378.446 1827.926,379.835 1825.52,378.579 1827.812,377.199 	"/>
	<polygon fill="#939598" points="1823.45,382.151 1823.419,380.264 1822.601,379.647 1820.954,380.424 1821.387,382.41 	"/>
	<polygon fill="#939598" points="1822.201,399.532 1822.168,397.645 1821.354,397.029 1819.705,397.804 1820.139,399.791 	"/>
	<polygon fill="#939598" points="1835.855,381.047 1834.876,380.559 1834.338,380.816 1834.296,381.875 1835.438,382.183 	"/>
	<polygon fill="#939598" points="1825.77,402.576 1825.028,401.537 1826.006,398.812 1829.868,397.196 1828.983,400.562 
		1828.861,401.71 	"/>
	<polygon fill="#939598" points="1833.344,393.689 1834.776,394.765 1836.021,392.388 1833.34,391.465 	"/>
	<polygon fill="#939598" points="1826.586,394.735 1825.604,395.674 1827.227,396.901 1828.25,395.008 	"/>
	<polygon fill="#939598" points="1812.467,377.967 1813.736,377.476 1812.705,375.721 1811.034,377.078 	"/>
	<polygon fill="#939598" points="1825.219,373.189 1826.651,374.265 1827.896,371.888 1825.215,370.965 	"/>
	<polygon fill="#939598" points="1818.461,374.235 1817.479,375.174 1819.102,376.401 1820.125,374.508 	"/>
	<polygon fill="#939598" points="1828.711,374.735 1827.729,375.674 1829.352,376.901 1830.375,375.008 	"/>
	<polygon fill="#939598" points="1838.715,393.987 1839.948,392.003 1840.972,392.599 1841.321,394.663 1840.468,395.36 	"/>
	<polygon fill="#939598" points="1803.2,395.072 1804.436,393.088 1805.457,393.686 1805.807,395.75 1804.955,396.445 	"/>
	<polygon fill="#939598" points="1822.146,404.681 1823.382,402.696 1824.403,403.293 1824.753,405.356 1823.901,406.053 	"/>
	<polygon fill="#939598" points="1829.958,396.207 1830.168,394.428 1831.071,394.508 1831.986,395.827 1831.623,396.588 	"/>
	<polygon fill="#939598" points="1837.208,398.767 1838.704,396.674 1839.808,396.941 1839.966,399.004 1837.812,399.48 	"/>
	<polygon fill="#939598" points="1836.209,401.189 1833.181,400.118 1833.117,398.703 1835.536,397.801 1836.854,400.216 	"/>
	<path fill="#939598" d="M1835.448,404.856l0.302,0.982c0,0,1.151,0.008,1.274-0.18c0.125-0.188-0.145-1.093-0.145-1.093
		L1835.448,404.856z"/>
	<path fill="#939598" d="M1803.699,400.046l0.3,0.983c0,0,1.152,0.009,1.275-0.181c0.124-0.187-0.146-1.093-0.146-1.093
		L1803.699,400.046z"/>
	<polygon fill="#939598" points="1838.657,402.457 1839.116,400.764 1841.821,401.002 1840.229,403.156 	"/>
	<polygon fill="#939598" points="1841.235,397.931 1841.988,399.661 1842.979,399.918 1844.202,398.571 1843.042,396.901 	"/>
	<polygon fill="#939598" points="1791.312,392.487 1791.771,390.795 1794.476,391.033 1792.882,393.187 	"/>
	<polygon fill="#939598" points="1796.479,390.467 1797.23,392.197 1798.221,392.455 1799.446,391.107 1798.286,389.438 	"/>
	<polygon fill="#939598" points="1831.324,402.681 1832.419,402.755 1832.817,402.312 1832.45,401.319 1831.276,401.472 	"/>
</g>
<path fill="#BA8E2D" d="M1773.441,443.524h9.736v-18.388h-9.736V443.524z M1796.877,443.524h9.738v-18.388h-9.738V443.524z
	 M1785.158,443.524h9.738v-18.388h-9.738V443.524z M1764.021,437.09l6.433,6.435h1.009v-18.388h-7.441V437.09L1764.021,437.09z
	 M1833.511,425.137h-1.479v18.388h7.913v-11.953L1833.511,425.137z M1820.312,443.524h9.739v-18.388h-9.739V443.524z
	 M1808.594,443.524h9.74v-18.388h-9.74V443.524z"/>
<path fill="#BA8E2D" d="M1885.424,443.524h9.736v-18.388h-9.736V443.524z M1873.704,443.524h9.737v-18.388h-9.737V443.524z
	 M1897.141,443.524h9.738v-18.388h-9.738V443.524z M1861.987,443.524h9.737v-18.388h-9.737V443.524z M1922.057,425.137h-1.479
	v18.388h7.911v-11.953L1922.057,425.137z M1908.859,443.524h9.736v-18.388h-9.736V443.524z M1852.566,437.09l6.433,6.435h1.008
	v-18.388h-7.439L1852.566,437.09L1852.566,437.09z"/>
<path fill="#BA8E2D" d="M1973.968,443.524h9.738v-18.388h-9.738V443.524z M1985.686,443.524h9.74v-18.388h-9.74V443.524z
	 M1962.25,443.524h9.738v-18.388h-9.738V443.524z M1950.532,443.524h9.739v-18.388h-9.739V443.524z M2010.604,425.137h-1.48v18.388
	h7.913v-11.953L2010.604,425.137z M1941.112,437.09l6.433,6.435h1.008v-18.388h-7.439L1941.112,437.09L1941.112,437.09z
	 M1997.404,443.524h9.738v-18.388h-9.738V443.524z"/>
<g>
	<path d="M2254.122,397.332h-61.075c-3.617,0-6.576-2.961-6.576-6.578l0,0c0-3.619,2.959-6.578,6.576-6.578h61.075
		c3.62,0,6.578,2.958,6.578,6.578l0,0C2260.7,394.371,2257.742,397.332,2254.122,397.332z"/>
</g>
<rect x="2333.166" y="321.071" width="16.902" height="118.04"/>
<polyline fill="none" stroke="#000000" stroke-width="14" stroke-miterlimit="10" points="2279.402,361.382 2279.402,248.594 
	2332.119,248.594 "/>
<rect x="1197.33" y="304.64" transform="matrix(-0.891 0.454 -0.454 -0.891 2446.4253 40.6775)" width="42" height="18.759"/>
<rect x="1628.308" y="324.636" transform="matrix(-0.891 0.454 -0.454 -0.891 3270.4875 -117.1618)" width="42" height="18.759"/>
<polyline fill="none" stroke="#000000" stroke-width="9" stroke-miterlimit="10" points="2297.402,361.382 2297.402,271.594 
	2314.281,271.594 "/>
<polyline fill="none" stroke="#000000" stroke-width="14" stroke-miterlimit="10" points="2331.973,286.968 2331.973,303.742 
	3676,303.742 "/>
<polygon points="3675.999,195.468 2602,195.468 2602,387.09 2534.501,387.09 2534.501,373.09 2588,373.09 2588,181.468 
	3675.999,181.468 "/>
</svg>
