<?xml version="1.0" encoding="utf-8"?>
<!-- Generator: Adobe Illustrator 16.0.4, SVG Export Plug-In . SVG Version: 6.00 Build 0)  -->
<!DOCTYPE svg PUBLIC "-//W3C//DTD SVG 1.1//EN" "http://www.w3.org/Graphics/SVG/1.1/DTD/svg11.dtd">
<svg version="1.1" id="Layer_1" xmlns="http://www.w3.org/2000/svg" xmlns:xlink="http://www.w3.org/1999/xlink" x="0px" y="0px"
	 width="3676px" height="1255.939px" viewBox="0 0 3676 1255.939" enable-background="new 0 0 3676 1255.939" xml:space="preserve">
<g id="bg_front">
	<g>
		<rect x="2263.555" y="361.314" width="51.728" height="37.553"/>
		<path fill="#A2CFD9" d="M2314.281,362.314v35.553h-49.728v-35.553H2314.281 M2316.281,360.314h-2h-49.728h-2v2v35.553v2h2h49.728
			h2v-2v-35.553V360.314L2316.281,360.314z"/>
	</g>
	<g>
		<g>
			<polygon points="2325.65,292.478 2312.038,281.987 2307.911,260.289 2356.034,260.289 2351.909,281.986 2338.296,292.478 			"/>
		</g>
		<g>
			<path fill="#A2CFD9" d="M2354.826,261.289l-3.828,20.138l-13.043,10.052h-11.963l-13.043-10.051l-3.83-20.138L2354.826,261.289
				 M2320.934,266.897h22.08l0.313-1.649h-22.706L2320.934,266.897 M2322.001,272.507h19.946l0.312-1.649h-20.571L2322.001,272.507
				 M2325.95,278.115h12.048l2.141-1.649h-16.327L2325.95,278.115 M2357.242,259.289h-2.416h-45.707h-2.416l0.451,2.374l3.83,20.138
				l0.143,0.747l0.602,0.464l13.043,10.051l0.539,0.416h0.683h11.963h0.682l0.539-0.416l13.043-10.052l0.603-0.464l0.143-0.747
				l3.828-20.138L2357.242,259.289L2357.242,259.289z"/>
		</g>
	</g>
	<g>
		<polygon points="2573.074,267.782 2573.074,231.535 2566.759,225.228 2560.052,213.61 2572.86,206.216 2579.566,217.833 
			2581.002,223.204 2581.002,218.609 2575.283,207.012 2614.258,207.012 2608.54,218.612 2608.54,223.708 2610.11,217.833 
			2616.816,206.216 2629.627,213.61 2622.92,225.228 2616.467,231.67 2616.467,267.782 		"/>
		<g>
			<path fill="#A7D5E0" d="M2617.184,207.582l11.077,6.395l-6.141,10.637l-6.653,6.642v35.526h-41.393V231.12l-6.517-6.507
				l-6.142-10.637l11.076-6.395l6.142,10.637l2.446,9.155h0.92v-8.998l-5.109-10.364h35.759l-5.11,10.367v8.995h1.057l2.445-9.155
				L2617.184,207.582 M2573.227,204.85l-1.731,1l-11.076,6.395l-1.731,1l1,1.732l6.141,10.637l0.133,0.229l0.188,0.188l5.929,5.921
				v34.833v2h2h41.394h2v-2v-34.697l6.065-6.056l0.188-0.188l0.132-0.229l6.142-10.637l0.998-1.732l-1.73-1l-11.077-6.395l-1.731-1
				l-0.671,1.162h-3.13h-35.76h-2.993L2573.227,204.85L2573.227,204.85z"/>
		</g>
	</g>
	<g>
		<rect x="2313.281" y="356.135" width="18.904" height="47.912"/>
		<path fill="#A2CFD9" d="M2331.186,357.135v45.912h-16.903v-45.912H2331.186 M2333.186,355.135h-2h-16.903h-2v2v45.912v2h2h16.903
			h2v-2v-45.912V355.135L2333.186,355.135z"/>
	</g>
</g>
</svg>
