<?xml version="1.0" encoding="utf-8"?>
<!--Generator: Adobe Illustrator 16.0.4, SVG Export Plug-In . SVG Version: 6.00 Build 0)-->
<!DOCTYPE svg PUBLIC "-//W3C//DTD SVG 1.1//EN" "http://www.w3.org/Graphics/SVG/1.1/DTD/svg11.dtd">
<svg version="1.1" id="sky" xmlns="http://www.w3.org/2000/svg" xmlns:xlink="http://www.w3.org/1999/xlink" x="0px" y="0px" width="3676px" height="1255.939px" viewBox="0 0 3676 1255.939" enable-background="new 0 0 3676 1255.939" xml:space="preserve">
    <path opacity="0.2" fill="#FFFFFF" enable-background="new    " d="M1010.801,188.464h-16.229c0.608-1.566,0.957-3.263,0.957-5.044
	c0-7.688-6.232-13.92-13.922-13.92c-2.621,0-5.064,0.738-7.158,1.999c0.047-0.631,0.078-1.267,0.078-1.91
	c0-14.116-11.443-25.561-25.562-25.561c-13.106,0-23.906,9.87-25.383,22.582c-2.352-1.093-4.963-1.721-7.727-1.721
	c-10.144,0-18.367,8.223-18.367,18.366c0,1.82,0.274,3.575,0.768,5.236c-3.447,0.266-6.166,3.142-6.166,6.659
	c0,3.693,2.994,6.686,6.687,6.686h112.024c3.691,0,6.687-2.993,6.687-6.686C1017.486,191.458,1014.492,188.464,1010.801,188.464z"/>
    <path opacity="0.2" fill="#FFFFFF" enable-background="new    " d="M1594.76,217.892h-8.348c0.312-0.806,0.492-1.678,0.492-2.595
	c0-3.954-3.207-7.161-7.162-7.161c-1.349,0-2.605,0.379-3.685,1.027c0.025-0.324,0.039-0.65,0.039-0.982
	c0-7.262-5.885-13.149-13.146-13.149c-6.744,0-12.301,5.077-13.058,11.618c-1.211-0.563-2.557-0.886-3.979-0.886
	c-5.217,0-9.447,4.229-9.447,9.448c0,0.937,0.144,1.839,0.396,2.694c-1.773,0.136-3.172,1.615-3.172,3.425
	c0,1.898,1.541,3.439,3.438,3.439h57.629c1.9,0,3.439-1.541,3.439-3.439C1598.199,219.431,1596.66,217.892,1594.76,217.892z"/>
    <path opacity="0.2" fill="#FFFFFF" enable-background="new    " d="M3018.26,191.911c-1.629,0-3.166,0.39-4.531,1.071
	c-1.707-3.412-5.227-5.76-9.301-5.76c-5.545,0-10.063,4.339-10.375,9.806c-2.738,0.24-5.006,2.11-5.83,4.636
	c-2.111,0.54-3.674,2.448-3.674,4.728c0,2.699,2.188,4.886,4.885,4.886h31.955c0.828,0,1.605-0.207,2.287-0.57
	c0.363-0.191,0.695-0.431,0.998-0.706c2.299-1.867,3.771-4.714,3.771-7.908C3028.445,196.469,3023.885,191.911,3018.26,191.911z"/>
    <path opacity="0.2" fill="#FFFFFF" enable-background="new    " d="M3286.793,225.881h-16.229c0.608-1.566,0.957-3.263,0.957-5.044
	c0-7.688-6.234-13.92-13.923-13.92c-2.621,0-5.063,0.738-7.157,1.999c0.045-0.631,0.077-1.267,0.077-1.91
	c0-14.116-11.444-25.561-25.562-25.561c-13.107,0-23.906,9.87-25.383,22.582c-2.353-1.093-4.963-1.721-7.728-1.721
	c-10.142,0-18.365,8.223-18.365,18.366c0,1.82,0.273,3.575,0.769,5.236c-3.449,0.266-6.166,3.142-6.166,6.659
	c0,3.693,2.992,6.686,6.686,6.686h112.023c3.693,0,6.686-2.993,6.686-6.686C3293.479,228.875,3290.486,225.881,3286.793,225.881z"/>
    <path opacity="0.2" fill="#FFFFFF" enable-background="new    " d="M2204.869,198.961h-5.557c0.205-0.542,0.323-1.128,0.323-1.742
	c0-2.713-2.198-4.913-4.912-4.913c-0.868,0-1.684,0.227-2.389,0.622c0.006-0.153,0.01-0.308,0.01-0.463
	c0-4.989-4.043-9.033-9.032-9.033c-4.562,0-8.332,3.383-8.943,7.778c-0.762-0.313-1.594-0.487-2.467-0.487
	c-3.591,0-6.498,2.91-6.498,6.498c0,0.609,0.09,1.196,0.248,1.755c-1.207,0.114-2.15,1.129-2.15,2.364
	c0,1.314,1.062,2.378,2.377,2.378h38.99c1.312,0,2.377-1.064,2.377-2.378S2206.182,198.961,2204.869,198.961z"/>
    <path opacity="0.2" fill="#FFFFFF" enable-background="new    " d="M2204.98,201.495h-5.683c0.213-0.548,0.334-1.142,0.334-1.766
	c0-2.69-2.182-4.873-4.873-4.873c-0.916,0-1.771,0.259-2.506,0.7c0.019-0.221,0.029-0.443,0.029-0.668
	c0-4.941-4.009-8.947-8.949-8.947c-4.588,0-8.367,3.455-8.885,7.904c-0.822-0.382-1.736-0.603-2.703-0.603
	c-3.551,0-6.43,2.879-6.43,6.43c0,0.637,0.096,1.251,0.268,1.833c-1.207,0.093-2.157,1.1-2.157,2.331c0,1.292,1.049,2.34,2.34,2.34
	h39.215c1.291,0,2.34-1.048,2.34-2.34C2207.32,202.542,2206.271,201.495,2204.98,201.495z"/>
    <path opacity="0.2" fill="#FFFFFF" enable-background="new    " d="M3381.557,179.421h-8.348c0.312-0.806,0.492-1.678,0.492-2.595
	c0-3.954-3.207-7.161-7.162-7.161c-1.348,0-2.605,0.379-3.685,1.027c0.025-0.324,0.039-0.65,0.039-0.982
	c0-7.262-5.885-13.149-13.146-13.149c-6.744,0-12.301,5.077-13.057,11.618c-1.211-0.563-2.558-0.886-3.979-0.886
	c-5.217,0-9.447,4.229-9.447,9.448c0,0.937,0.144,1.839,0.396,2.694c-1.773,0.136-3.172,1.615-3.172,3.425
	c0,1.898,1.541,3.439,3.438,3.439h57.629c1.899,0,3.438-1.541,3.438-3.439C3384.996,180.96,3383.457,179.421,3381.557,179.421z"/>
    <path opacity="0.2" fill="#FFFFFF" enable-background="new    " d="M645.279,129.798H629.05c0.609-1.566,0.957-3.263,0.957-5.044
	c0-7.688-6.233-13.92-13.922-13.92c-2.621,0-5.064,0.738-7.158,1.999c0.045-0.631,0.078-1.267,0.078-1.91
	c0-14.116-11.445-25.561-25.562-25.561c-13.107,0-23.906,9.87-25.384,22.582c-2.352-1.093-4.963-1.721-7.727-1.721
	c-10.141,0-18.365,8.223-18.365,18.366c0,1.82,0.273,3.575,0.769,5.236c-3.449,0.266-6.166,3.142-6.166,6.659
	c0,3.693,2.991,6.686,6.686,6.686h112.023c3.692,0,6.686-2.993,6.686-6.686S648.973,129.798,645.279,129.798z"/>
    <path opacity="0.2" fill="#FFFFFF" enable-background="new    " d="M2077.793,82.057h-16.229c0.608-1.566,0.957-3.263,0.957-5.044
	c0-7.688-6.234-13.92-13.923-13.92c-2.621,0-5.063,0.738-7.157,1.999c0.045-0.631,0.077-1.267,0.077-1.91
	c0-14.116-11.444-25.561-25.562-25.561c-13.107,0-23.906,9.87-25.383,22.582c-2.353-1.093-4.963-1.721-7.728-1.721
	c-10.141,0-18.365,8.223-18.365,18.366c0,1.82,0.273,3.575,0.769,5.236c-3.449,0.266-6.166,3.142-6.166,6.659
	c0,3.693,2.992,6.686,6.686,6.686h112.023c3.693,0,6.686-2.993,6.686-6.686C2084.479,85.05,2081.486,82.057,2077.793,82.057z"/>
    <path opacity="0.2" fill="#FFFFFF" enable-background="new    " d="M439.707,31.971h-5.725c0.215-0.553,0.338-1.151,0.338-1.779
	c0-2.711-2.199-4.91-4.91-4.91c-0.924,0-1.787,0.26-2.525,0.705c0.019-0.222,0.027-0.446,0.027-0.673
	c0-4.979-4.035-9.016-9.016-9.016c-4.623,0-8.433,3.481-8.951,7.965c-0.83-0.386-1.752-0.607-2.728-0.607
	c-3.578,0-6.479,2.9-6.479,6.478c0,0.642,0.098,1.261,0.271,1.847c-1.217,0.093-2.176,1.107-2.176,2.349
	c0,1.302,1.057,2.358,2.359,2.358h39.512c1.303,0,2.357-1.056,2.357-2.358C442.064,33.026,441.01,31.971,439.707,31.971z"/>
    <path opacity="0.2" fill="#FFFFFF" enable-background="new    " d="M387.976,74.67h-8.349c0.314-0.806,0.493-1.678,0.493-2.595
	c0-3.954-3.208-7.161-7.161-7.161c-1.35,0-2.605,0.379-3.684,1.027c0.023-0.324,0.039-0.65,0.039-0.982
	c0-7.262-5.887-13.149-13.148-13.149c-6.744,0-12.299,5.077-13.057,11.618c-1.211-0.562-2.556-0.886-3.978-0.886
	c-5.217,0-9.447,4.229-9.447,9.448c0,0.937,0.142,1.839,0.396,2.694c-1.773,0.136-3.172,1.615-3.172,3.425
	c0,1.898,1.539,3.439,3.438,3.439h57.628c1.899,0,3.439-1.541,3.439-3.439C391.415,76.209,389.875,74.67,387.976,74.67z"/>
    <path opacity="0.2" fill="#FFFFFF" enable-background="new    " d="M1155.43,34.535h-8.348c0.312-0.806,0.492-1.678,0.492-2.595
	c0-3.954-3.207-7.161-7.162-7.161c-1.348,0-2.605,0.379-3.684,1.027c0.024-0.324,0.038-0.65,0.038-0.982
	c0-7.262-5.885-13.149-13.146-13.149c-6.744,0-12.301,5.077-13.057,11.618c-1.212-0.563-2.558-0.886-3.979-0.886
	c-5.217,0-9.447,4.229-9.447,9.448c0,0.937,0.144,1.839,0.396,2.694c-1.773,0.136-3.172,1.615-3.172,3.425
	c0,1.898,1.541,3.439,3.438,3.439h57.629c1.9,0,3.439-1.541,3.439-3.439C1158.869,36.074,1157.33,34.535,1155.43,34.535z"/>
    <path opacity="0.2" fill="#FFFFFF" enable-background="new    " d="M2517.074,34.216h-8.348c0.312-0.806,0.491-1.678,0.491-2.595
	c0-3.954-3.207-7.161-7.162-7.161c-1.348,0-2.604,0.379-3.684,1.027c0.024-0.324,0.039-0.65,0.039-0.982
	c0-7.262-5.886-13.149-13.146-13.149c-6.743,0-12.301,5.077-13.057,11.618c-1.211-0.563-2.557-0.886-3.979-0.886
	c-5.217,0-9.446,4.229-9.446,9.448c0,0.937,0.143,1.839,0.395,2.694c-1.772,0.136-3.172,1.615-3.172,3.425
	c0,1.897,1.541,3.438,3.438,3.438h57.629c1.9,0,3.439-1.541,3.439-3.438C2520.514,35.755,2518.975,34.216,2517.074,34.216z"/>
    <path opacity="0.2" fill="#FFFFFF" enable-background="new    " d="M3036.311,103.721h-8.348c0.312-0.806,0.492-1.678,0.492-2.595
	c0-3.954-3.207-7.161-7.162-7.161c-1.348,0-2.605,0.379-3.684,1.027c0.024-0.324,0.039-0.65,0.039-0.982
	c0-7.262-5.886-13.149-13.146-13.149c-6.744,0-12.301,5.077-13.057,11.618c-1.211-0.563-2.557-0.886-3.979-0.886
	c-5.217,0-9.446,4.229-9.446,9.448c0,0.937,0.143,1.839,0.395,2.694c-1.773,0.136-3.172,1.615-3.172,3.425
	c0,1.898,1.541,3.439,3.438,3.439h57.629c1.9,0,3.439-1.541,3.439-3.439C3039.75,105.26,3038.211,103.721,3036.311,103.721z"/>
    <path opacity="0.2" fill="#FFFFFF" enable-background="new    " d="M1271.855,120.158h-8.349c0.312-0.806,0.492-1.678,0.492-2.595
	c0-3.954-3.207-7.161-7.162-7.161c-1.348,0-2.604,0.379-3.684,1.027c0.024-0.324,0.038-0.65,0.038-0.982
	c0-7.262-5.885-13.149-13.146-13.149c-6.744,0-12.301,5.077-13.057,11.618c-1.212-0.563-2.558-0.886-3.979-0.886
	c-5.217,0-9.447,4.229-9.447,9.448c0,0.937,0.144,1.839,0.396,2.694c-1.773,0.136-3.172,1.615-3.172,3.425
	c0,1.898,1.541,3.439,3.438,3.439h57.629c1.9,0,3.439-1.541,3.439-3.439C1275.295,121.697,1273.756,120.158,1271.855,120.158z"/>
    <path opacity="0.2" fill="#FFFFFF" enable-background="new    " d="M760.717,38.171h-5.68c0.213-0.548,0.334-1.142,0.334-1.766
	c0-2.69-2.182-4.873-4.873-4.873c-0.918,0-1.773,0.259-2.506,0.7c0.016-0.221,0.026-0.443,0.026-0.668
	c0-4.941-4.006-8.947-8.946-8.947c-4.588,0-8.367,3.455-8.886,7.904c-0.823-0.382-1.737-0.603-2.704-0.603
	c-3.552,0-6.431,2.879-6.431,6.43c0,0.637,0.099,1.251,0.271,1.833c-1.207,0.093-2.158,1.1-2.158,2.331
	c0,1.292,1.047,2.34,2.34,2.34h39.213c1.293,0,2.342-1.048,2.342-2.34C763.059,39.219,762.01,38.171,760.717,38.171z"/>
    <path opacity="0.2" fill="#FFFFFF" enable-background="new    " d="M1687.211,48.818h-5.682c0.213-0.548,0.334-1.142,0.334-1.766
	c0-2.69-2.183-4.873-4.873-4.873c-0.916,0-1.771,0.259-2.506,0.7c0.018-0.221,0.028-0.443,0.028-0.668
	c0-4.941-4.008-8.947-8.948-8.947c-4.588,0-8.367,3.455-8.886,7.904c-0.821-0.382-1.735-0.603-2.702-0.603
	c-3.552,0-6.431,2.879-6.431,6.43c0,0.637,0.096,1.251,0.269,1.833c-1.207,0.093-2.158,1.1-2.158,2.331
	c0,1.292,1.049,2.34,2.34,2.34h39.215c1.291,0,2.34-1.048,2.34-2.34C1689.551,49.865,1688.502,48.818,1687.211,48.818z"/>
    <path opacity="0.2" fill="#FFFFFF" enable-background="new    " d="M2145.734,28.003h-5.681c0.213-0.548,0.334-1.142,0.334-1.766
	c0-2.69-2.182-4.873-4.873-4.873c-0.918,0-1.772,0.259-2.506,0.7c0.017-0.221,0.027-0.443,0.027-0.668
	c0-4.941-4.007-8.947-8.947-8.947c-4.588,0-8.367,3.455-8.885,7.904c-0.824-0.382-1.738-0.603-2.705-0.603
	c-3.552,0-6.431,2.879-6.431,6.43c0,0.637,0.099,1.251,0.271,1.833c-1.207,0.093-2.158,1.1-2.158,2.331
	c0,1.292,1.048,2.34,2.341,2.34h39.213c1.293,0,2.342-1.048,2.342-2.34C2148.076,29.051,2147.027,28.003,2145.734,28.003z"/>
    <path opacity="0.2" fill="#FFFFFF" enable-background="new    " d="M2357.643,75.411h-5.68c0.213-0.548,0.334-1.142,0.334-1.766
	c0-2.69-2.182-4.873-4.873-4.873c-0.918,0-1.772,0.259-2.506,0.7c0.016-0.221,0.027-0.443,0.027-0.668
	c0-4.941-4.006-8.947-8.947-8.947c-4.588,0-8.367,3.455-8.885,7.904c-0.824-0.382-1.738-0.603-2.705-0.603
	c-3.551,0-6.43,2.879-6.43,6.43c0,0.637,0.098,1.251,0.27,1.833c-1.207,0.093-2.158,1.1-2.158,2.331c0,1.292,1.047,2.34,2.34,2.34
	h39.213c1.293,0,2.343-1.048,2.343-2.34C2359.984,76.458,2358.936,75.411,2357.643,75.411z"/>
    <path opacity="0.2" fill="#FFFFFF" enable-background="new    " d="M3194.934,60.553h-5.68c0.213-0.548,0.334-1.142,0.334-1.766
	c0-2.69-2.182-4.873-4.873-4.873c-0.918,0-1.772,0.259-2.506,0.7c0.016-0.221,0.027-0.443,0.027-0.668
	c0-4.941-4.006-8.947-8.947-8.947c-4.588,0-8.367,3.455-8.885,7.904c-0.824-0.382-1.738-0.603-2.705-0.603
	c-3.551,0-6.43,2.879-6.43,6.43c0,0.637,0.098,1.251,0.27,1.833c-1.207,0.093-2.158,1.1-2.158,2.331c0,1.292,1.047,2.34,2.34,2.34
	h39.213c1.293,0,2.343-1.048,2.343-2.34C3197.275,61.601,3196.227,60.553,3194.934,60.553z"/>
    <path opacity="0.2" fill="#FFFFFF" enable-background="new    " d="M885.357,56.952c-2.127,0-4.132,0.508-5.912,1.398
	c-2.228-4.45-6.816-7.512-12.131-7.512c-7.23,0-13.123,5.66-13.531,12.789c-3.57,0.314-6.527,2.752-7.603,6.046
	c-2.754,0.703-4.793,3.193-4.793,6.167c0,3.519,2.853,6.372,6.371,6.372h41.678c1.078,0,2.093-0.27,2.982-0.743
	c0.473-0.251,0.906-0.562,1.299-0.921c3-2.435,4.922-6.148,4.922-10.313C898.641,62.898,892.693,56.952,885.357,56.952z"/>
    <path opacity="0.2" fill="#FFFFFF" enable-background="new    " d="M1431.242,43.951c-2.127,0-4.131,0.508-5.91,1.398
	c-2.229-4.45-6.816-7.512-12.131-7.512c-7.232,0-13.125,5.66-13.533,12.789c-3.57,0.314-6.527,2.752-7.602,6.046
	c-2.755,0.703-4.793,3.193-4.793,6.167c0,3.519,2.854,6.372,6.37,6.372h41.679c1.078,0,2.092-0.27,2.981-0.743
	c0.474-0.251,0.906-0.562,1.302-0.921c3-2.435,4.92-6.148,4.92-10.313C1444.525,49.897,1438.578,43.951,1431.242,43.951z"/>
    <path opacity="0.2" fill="#FFFFFF" enable-background="new    " d="M1754.963,18.886c-1.629,0-3.166,0.39-4.531,1.071
	c-1.707-3.412-5.227-5.76-9.301-5.76c-5.545,0-10.063,4.339-10.375,9.806c-2.738,0.24-5.006,2.11-5.83,4.636
	c-2.11,0.54-3.674,2.448-3.674,4.728c0,2.699,2.188,4.886,4.885,4.886h31.955c0.828,0,1.605-0.207,2.287-0.57
	c0.363-0.191,0.695-0.431,0.998-0.706c2.299-1.867,3.771-4.714,3.771-7.908C1765.148,23.445,1760.588,18.886,1754.963,18.886z"/>
    <path opacity="0.2" fill="#FFFFFF" enable-background="new    " d="M2906.791,34.16c-1.631,0-3.168,0.39-4.531,1.071
	c-1.709-3.412-5.229-5.76-9.301-5.76c-5.547,0-10.064,4.339-10.377,9.806c-2.738,0.24-5.006,2.11-5.828,4.636
	c-2.111,0.54-3.676,2.448-3.676,4.728c0,2.699,2.188,4.886,4.885,4.886h31.957c0.826,0,1.604-0.207,2.285-0.57
	c0.363-0.191,0.695-0.431,0.998-0.706c2.301-1.867,3.771-4.714,3.771-7.908C2916.975,38.718,2912.416,34.16,2906.791,34.16z"/>
    <path opacity="0.2" fill="#FFFFFF" enable-background="new    " d="M3254.838,15.515c-1.631,0-3.168,0.39-4.531,1.071
	c-1.709-3.412-5.229-5.76-9.301-5.76c-5.547,0-10.064,4.339-10.377,9.806c-2.738,0.24-5.006,2.11-5.828,4.636
	c-2.111,0.54-3.676,2.448-3.676,4.728c0,2.699,2.188,4.886,4.885,4.886h31.957c0.826,0,1.604-0.207,2.285-0.57
	c0.363-0.191,0.695-0.431,0.998-0.706c2.301-1.867,3.771-4.714,3.771-7.908C3265.021,20.074,3260.463,15.515,3254.838,15.515z"/>
    <path opacity="0.2" fill="#FFFFFF" enable-background="new    " d="M2700.953,62.541c-3.779,0-7.346,0.903-10.51,2.484
	c-3.961-7.914-12.123-13.358-21.568-13.358c-12.863,0-23.342,10.063-24.064,22.742c-6.35,0.557-11.608,4.894-13.52,10.751
	c-4.896,1.251-8.521,5.678-8.521,10.965c0,6.259,5.072,11.331,11.328,11.331h74.111c1.918,0,3.721-0.479,5.303-1.321
	c0.842-0.444,1.611-1,2.314-1.637c5.334-4.33,8.746-10.933,8.746-18.34C2724.572,73.113,2713.998,62.541,2700.953,62.541z"/>
    <path opacity="0.2" fill="#FFFFFF" enable-background="new    " d="M243.604,191.394h-5.723c0.215-0.553,0.338-1.151,0.338-1.779
	c0-2.711-2.199-4.91-4.91-4.91c-0.926,0-1.787,0.26-2.525,0.705c0.016-0.222,0.025-0.446,0.025-0.673
	c0-4.979-4.035-9.016-9.014-9.016c-3.334,0-6.236,1.814-7.796,4.505v15.885h29.604c1.303,0,2.359-1.056,2.359-2.358
	C245.963,192.449,244.906,191.394,243.604,191.394z"/>
</svg>
