<?xml version="1.0" encoding="utf-8"?>
<!--Generator: Adobe Illustrator 16.0.0, SVG Export Plug-In . SVG Version: 6.00 Build 0)-->
<!DOCTYPE svg PUBLIC "-//W3C//DTD SVG 1.1//EN" "http://www.w3.org/Graphics/SVG/1.1/DTD/svg11.dtd">
<svg version="1.1" id="Layer_1" xmlns="http://www.w3.org/2000/svg" xmlns:xlink="http://www.w3.org/1999/xlink" x="0px" y="0px" width="31.28px" height="31.28px" viewBox="0 0 31.28 31.28" enable-background="new 0 0 31.28 31.28" xml:space="preserve">
    <g>
        <path fill="#BA8E2D" d="M15.676,31.279H15.64c-1.021,0-2.05-0.104-3.059-0.305c-1-0.203-1.982-0.502-2.923-0.889
		c-0.8-0.332-1.572-0.728-2.299-1.179c-0.704-0.437-0.92-1.362-0.483-2.065c0.438-0.704,1.363-0.92,2.065-0.483
		c0.589,0.366,1.215,0.687,1.862,0.954c0.761,0.314,1.56,0.557,2.37,0.721c0.812,0.162,1.643,0.246,2.466,0.246
		c0.828,0,1.518,0.671,1.518,1.5C17.158,30.607,16.504,31.279,15.676,31.279z M22.307,29.607c-0.537,0-1.057-0.289-1.326-0.797
		c-0.389-0.73-0.111-1.639,0.621-2.027c0.365-0.194,0.723-0.406,1.061-0.632c0.689-0.456,1.332-0.979,1.91-1.556
		c0.582-0.582,1.111-1.23,1.574-1.926c0.154-0.234,0.305-0.479,0.447-0.728c0.414-0.72,1.328-0.969,2.047-0.557
		c0.719,0.411,0.969,1.328,0.557,2.047c-0.174,0.304-0.357,0.603-0.551,0.896c-0.576,0.865-1.232,1.666-1.953,2.389
		c-0.721,0.72-1.52,1.371-2.375,1.937c-0.418,0.276-0.859,0.54-1.309,0.778C22.785,29.551,22.543,29.607,22.307,29.607z
		 M3.402,24.22c-0.519,0-1.023-0.271-1.301-0.752c-0.339-0.589-0.643-1.206-0.902-1.833c-0.39-0.943-0.69-1.928-0.892-2.925
		c-0.203-1.013-0.306-2.046-0.306-3.07c0-0.178,0.003-0.355,0.01-0.533c0.03-0.827,0.738-1.457,1.554-1.444
		c0.828,0.03,1.475,0.727,1.444,1.555c-0.005,0.141-0.008,0.282-0.008,0.423c0,0.827,0.083,1.661,0.247,2.479
		c0.163,0.807,0.406,1.604,0.723,2.369c0.21,0.508,0.455,1.006,0.729,1.482c0.413,0.718,0.167,1.635-0.551,2.049
		C3.914,24.154,3.656,24.22,3.402,24.22z M29.771,17.612c-0.016,0-0.031,0-0.047-0.001c-0.828-0.025-1.479-0.717-1.453-1.546
		c0.004-0.142,0.008-0.284,0.008-0.426c0-0.816-0.084-1.647-0.248-2.468c-0.162-0.8-0.406-1.596-0.723-2.36
		C27.1,10.3,26.85,9.797,26.568,9.311c-0.414-0.717-0.17-1.634,0.547-2.05c0.715-0.414,1.635-0.171,2.049,0.546
		c0.35,0.603,0.658,1.229,0.918,1.86c0.389,0.939,0.689,1.921,0.891,2.913c0.203,1.018,0.307,2.046,0.307,3.06
		c0,0.173-0.004,0.346-0.01,0.519C31.246,16.971,30.578,17.612,29.771,17.612z M3.396,10.091c-0.255,0-0.514-0.065-0.75-0.202
		c-0.717-0.415-0.962-1.332-0.548-2.05C2.27,7.543,2.451,7.252,2.64,6.968c0.559-0.841,1.213-1.642,1.943-2.377
		c0.729-0.728,1.529-1.383,2.384-1.953c0.426-0.282,0.868-0.547,1.315-0.787c0.73-0.392,1.64-0.117,2.031,0.613
		s0.116,1.64-0.613,2.031C9.334,4.69,8.977,4.905,8.629,5.136C7.94,5.595,7.293,6.125,6.708,6.709C6.12,7.302,5.59,7.949,5.137,8.63
		C4.982,8.863,4.834,9.1,4.696,9.341C4.417,9.821,3.914,10.091,3.396,10.091z M23.109,5.148c-0.271,0-0.545-0.073-0.791-0.228
		c-0.592-0.368-1.213-0.688-1.848-0.949c-0.766-0.316-1.562-0.56-2.367-0.723c-0.818-0.164-1.648-0.248-2.463-0.248
		c-0.828,0-1.51-0.671-1.51-1.5c0-0.828,0.663-1.5,1.491-1.5h0.019c1.013,0,2.04,0.104,3.055,0.307
		c0.996,0.202,1.977,0.502,2.92,0.891c0.787,0.325,1.557,0.721,2.289,1.177c0.703,0.438,0.918,1.363,0.48,2.066
		C24.1,4.897,23.609,5.148,23.109,5.148z"/>
    </g>
</svg>
