<?xml version="1.0" encoding="utf-8"?>
<!--Generator: Adobe Illustrator 16.0.4, SVG Export Plug-In . SVG Version: 6.00 Build 0)-->
<!DOCTYPE svg PUBLIC "-//W3C//DTD SVG 1.1//EN" "http://www.w3.org/Graphics/SVG/1.1/DTD/svg11.dtd">
<svg version="1.1" id="Layer_1" xmlns="http://www.w3.org/2000/svg" xmlns:xlink="http://www.w3.org/1999/xlink" x="0px" y="0px" width="3251.332px" height="1862px" viewBox="0 0 3251.332 1862" enable-background="new 0 0 3251.332 1862" xml:space="preserve">
    <g id="slurry">
        <polygon fill="#BA8E2D" points="911.499,1519.986 907.499,1519.986 907.499,1462.88 1451.537,1462.88 1451.537,1248.328
		1534.011,1248.328 1534.011,1271.92 1530.011,1271.92 1530.011,1252.328 1455.537,1252.328 1455.537,1466.88 911.499,1466.88 	"/>
        <rect x="2116.451" y="655.626" fill="#939598" width="4" height="10.694"/>
        <polygon fill="#939598" points="2084.734,767.346 2084.734,679.626 2095.564,679.626 2095.186,677.626 2082.734,677.626
		2082.734,767.346 	"/>
        <polygon fill="#939598" points="2358.406,653.626 2063.734,653.626 2063.734,767.346 2067.734,767.346 2067.734,657.626
		2358.406,657.626 	"/>
        <path fill="#BA8E2D" d="M2374.332,708.773h-254.027v-8.269h-4v12.269h258.027V708.773z M2388.332,708.773v4h342.525v456.771
		H1210.665v27.768h-61.198l-17.135,32.041v18.449h4v-17.447l15.531-29.043h62.802v-27.768h1520.192V708.773H2388.332z"/>
        <polygon fill="#939598" points="1692.631,1462.88 1692.631,1351.677 1675.23,1351.677 1675.23,1355.677 1688.631,1355.677
		1688.631,1466.88 1721.289,1466.88 1721.289,1462.88 	"/>
        <path fill="#939598" d="M2379.332,785.122h-58.499v4h62.499V675.814h-4V785.122z M2303.381,1346.752h-44.285v23.206h4v-19.206
		h36.285v160.056h21.514v-4h-17.514V1346.752z M1949.799,1462.88h-135.473v-214.552h-264.327v18.875h1.742
		c0.761,0,1.512,0.037,2.258,0.092v-14.967h256.327v214.552h143.473v-97.649h-4V1462.88z M2052.333,1318.203h107.666v51.755h4
		v-55.755h-111.666V1318.203z M2662.332,1346.752h-44.811v23.206h4v-19.206h36.811v160.056h22.279v-4h-18.279V1346.752z
		 M2482.332,1346.752h-44.381v23.206h4v-19.206h36.381v160.056h21.922v-4h-17.922V1346.752z M2379.332,593.5v19.544h4V597.5h733.443
		v749.252h-88.312v24.328h4v-20.328h88.312V593.5H2379.332z M3028.465,1478.98v27.822h-186.248V1346.75h-44.833v23.206h4v-19.206
		h36.833v160.056h194.248v-31.891l-2.145,0.431L3028.465,1478.98z"/>
        <polygon fill="#939598" points="1609.325,1351.677 1609.325,1462.88 1543.604,1462.88 1543.604,1441.545 1539.604,1441.545
		1539.604,1466.88 1613.325,1466.88 1613.325,1355.677 1626.718,1355.677 1626.718,1351.677 	"/>
        <polygon fill="#939598" points="1875.771,1444.117 1873.771,1442.907 1873.771,1464.88 1877.771,1464.88 1877.771,1442.907 	"/>
        <path fill="#939598" d="M1451.537,1248.328v150.518h4v-146.518h74.474v14.979c0.811-0.062,1.617-0.104,2.439-0.104h1.561v-18.875
		H1451.537L1451.537,1248.328z M1213.406,1466.88h211.022v-4h-211.022V1466.88z"/>
        <polygon fill="#BA8E2D" points="1181.633,1243.154 1179.686,1249.154 1120.643,1249.154 1118.695,1243.154 	"/>
        <polygon fill="#BA8E2D" points="449.119,1465.779 448.105,1457.452 467.125,1457.452 466.111,1465.779 	"/>
        <path fill="#BA8E2D" d="M454.675,1417.868c-0.001-2.569,0.944-3.949,1.702-5.062c0.658-0.962,1.179-1.723,1.179-3.358
		c0-1.645-0.521-2.401-1.179-3.363c-0.758-1.109-1.703-2.489-1.702-5.061c-0.001-2.568,0.944-3.948,1.702-5.062
		c0.658-0.962,1.179-1.722,1.179-3.362h3c-0.001,2.568-0.939,3.948-1.702,5.062c-0.684,1-1.179,1.723-1.179,3.362
		c0,1.645,0.495,2.362,1.178,3.362c0.764,1.108,1.702,2.488,1.703,5.062c-0.001,2.565-0.939,3.947-1.703,5.059
		c-0.683,1-1.178,1.723-1.178,3.364c0,1.641,0.495,2.362,1.178,3.362c0.764,1.105,1.702,2.485,1.703,5.06
		c-0.001,2.567-0.939,3.948-1.702,5.058c-0.684,1-1.179,1.727-1.179,3.365c0,1.642,0.495,2.363,1.179,3.363
		c0.763,1.105,1.701,2.486,1.702,5.059c-0.001,2.568-0.939,3.948-1.697,5.059c-0.688,1-1.184,1.726-1.184,3.363
		c0,1.645,0.495,2.364,1.179,3.364c0.763,1.108,1.701,2.488,1.702,5.06h-3c0-1.643-0.521-2.398-1.179-3.36
		c-0.758-1.109-1.703-2.489-1.702-5.062c-0.001-2.567,0.944-3.948,1.702-5.062c0.658-0.963,1.179-1.724,1.179-3.361
		c0-1.643-0.521-2.4-1.179-3.362c-0.758-1.107-1.703-2.487-1.702-5.06c-0.001-2.568,0.944-3.948,1.702-5.062
		c0.658-0.962,1.179-1.725,1.179-3.361c0-1.642-0.521-2.398-1.179-3.362C455.619,1421.817,454.674,1420.438,454.675,1417.868z"/>
    </g>
</svg>
