<?xml version="1.0" encoding="utf-8"?>
<!-- Generator: Adobe Illustrator 16.0.4, SVG Export Plug-In . SVG Version: 6.00 Build 0)  -->
<!DOCTYPE svg PUBLIC "-//W3C//DTD SVG 1.1//EN" "http://www.w3.org/Graphics/SVG/1.1/DTD/svg11.dtd">
<svg version="1.1" id="fg_front" xmlns="http://www.w3.org/2000/svg" xmlns:xlink="http://www.w3.org/1999/xlink" x="0px" y="0px"
	 width="3676px" height="1255.94px" viewBox="0 0 3676 1255.94" enable-background="new 0 0 3676 1255.94" xml:space="preserve">
<rect x="2117.914" y="777.054" width="13.047" height="17.979"/>
<rect x="2200.766" y="777.054" width="13.047" height="17.979"/>
<path fill="#BA8E2D" d="M2065.723,773.355v125.844h200.278V773.355H2065.723z M2078.77,824.828v-38.425h174.183v38.425H2078.77z"/>
<rect x="2944.279" y="828.926" fill="#BA8E2D" width="139.334" height="164.636"/>
<rect x="2763.922" y="828.926" fill="#BA8E2D" width="139.333" height="164.636"/>
<rect x="2584.562" y="828.926" fill="#BA8E2D" width="139.334" height="164.636"/>
<path fill="#BA8E2D" d="M3175.205,830.048v84.781l118.783,23.486l117.071-23.486v-84.781H3175.205z"/>
<path fill="#BA8E2D" d="M1095.114,863.865v79.264h281.96v-79.264h-29.778v50.983h-35.132v-50.983h-11.687v50.983h-35.131v-50.983
	h-11.686v50.983h-35.133v-50.983h-11.686v50.983h-35.133v-50.983h-11.686v50.983h-35.132v-50.983H1095.114z"/>
<rect x="2405.562" y="828.926" fill="#BA8E2D" width="139.334" height="164.636"/>
<path fill="#BA8E2D" d="M1796.079,940.843c0,16.939-13.732,30.67-30.67,30.67h-19.291c-16.938,0-30.67-13.73-30.67-30.67V827.842
	c0-16.941,13.732-30.671,30.67-30.671h19.291c16.938,0,30.67,13.729,30.67,30.671V940.843z"/>
<g>
	<rect x="1840.386" y="856.181" width="8.222" height="55.333"/>
	<rect x="1850.457" y="856.181" width="8.223" height="55.333"/>
	<rect x="1860.531" y="856.181" width="8.222" height="55.333"/>
	<rect x="1870.604" y="856.181" width="8.223" height="55.333"/>
	<rect x="1880.676" y="856.181" width="8.223" height="55.333"/>
</g>
<rect x="1633.602" y="858.952" fill="#BA8E2D" width="58.625" height="85.548"/>
<rect x="1934.957" y="942.085" fill="#BA8E2D" width="58.625" height="72.276"/>
<polygon points="2115.277,958.456 2089.439,974.085 2063.601,958.456 2063.601,919.468 2115.277,919.468 "/>
<g>
	<path d="M2088.78,886.152h153.995c5.479,0,9.967-4.486,9.967-9.968l0,0c0-5.484-4.487-9.969-9.967-9.969H2088.78
		c-5.487,0-9.969,4.484-9.969,9.969l0,0C2078.812,881.666,2083.293,886.152,2088.78,886.152z"/>
</g>
</svg>
