<?xml version="1.0" encoding="utf-8"?>
<!-- Generator: Adobe Illustrator 16.0.0, SVG Export Plug-In . SVG Version: 6.00 Build 0)  -->
<!DOCTYPE svg PUBLIC "-//W3C//DTD SVG 1.1//EN" "http://www.w3.org/Graphics/SVG/1.1/DTD/svg11.dtd">
<svg version="1.1" id="Layer_1" xmlns="http://www.w3.org/2000/svg" xmlns:xlink="http://www.w3.org/1999/xlink" x="0px" y="0px"
	 width="11.44px" height="11.93px" viewBox="0 0 11.44 11.93" enable-background="new 0 0 11.44 11.93" xml:space="preserve">
<g>
	<path fill="#BA8E2D" d="M5.522,11.929H5.475c-0.392,0-0.787-0.041-1.17-0.117c-0.384-0.079-0.759-0.192-1.112-0.341
		c-0.358-0.147-0.704-0.332-1.027-0.547c-0.33-0.217-0.636-0.469-0.914-0.745C0.977,9.902,0.727,9.595,0.51,9.265
		C0.367,9.049,0.237,8.82,0.122,8.584c-0.287-0.591-0.041-1.306,0.551-1.593c0.596-0.288,1.308-0.04,1.594,0.55
		C2.336,7.684,2.413,7.82,2.501,7.95c0.131,0.2,0.277,0.381,0.44,0.544S3.287,8.808,3.48,8.938c0.196,0.129,0.407,0.24,0.627,0.331
		c0.211,0.088,0.438,0.157,0.674,0.205C5.006,9.52,5.24,9.543,5.475,9.543c0.661,0,1.218,0.534,1.218,1.192
		C6.692,11.395,6.182,11.929,5.522,11.929z M9.446,9.787c-0.225,0-0.453-0.063-0.656-0.198C8.24,9.226,8.091,8.484,8.454,7.936
		c0.124-0.19,0.232-0.395,0.322-0.607c0.09-0.221,0.161-0.445,0.205-0.671c0.049-0.23,0.073-0.463,0.073-0.691
		S9.03,5.502,8.981,5.272C8.936,5.043,8.866,4.815,8.776,4.595C8.713,4.442,8.638,4.294,8.556,4.15
		c-0.332-0.57-0.139-1.3,0.43-1.631c0.569-0.33,1.299-0.138,1.631,0.431c0.139,0.238,0.26,0.484,0.363,0.733
		c0.149,0.361,0.265,0.735,0.342,1.112c0.079,0.388,0.117,0.781,0.117,1.17c0,0.388-0.038,0.781-0.117,1.167
		c-0.077,0.374-0.192,0.749-0.342,1.109c-0.146,0.352-0.326,0.691-0.538,1.011C10.215,9.599,9.835,9.787,9.446,9.787z M1.334,4.786
		c-0.2,0-0.403-0.05-0.59-0.155C0.172,4.303-0.028,3.576,0.296,3.003c0.069-0.117,0.141-0.234,0.216-0.348
		c0.215-0.327,0.465-0.632,0.737-0.908c0.284-0.282,0.59-0.53,0.914-0.745C2.49,0.787,2.832,0.606,3.189,0.457
		c0.364-0.147,0.737-0.262,1.113-0.338c0.526-0.104,1.049-0.141,1.56-0.104C6.52,0.061,7.015,0.629,6.969,1.287
		c-0.046,0.658-0.62,1.161-1.271,1.107C5.392,2.375,5.083,2.396,4.771,2.458C4.549,2.502,4.318,2.573,4.1,2.664
		C3.884,2.751,3.673,2.863,3.478,2.992C3.285,3.121,3.103,3.268,2.936,3.434C2.78,3.591,2.63,3.776,2.501,3.971
		c-0.046,0.069-0.09,0.141-0.13,0.213C2.151,4.571,1.748,4.786,1.334,4.786z"/>
</g>
</svg>
