<?xml version="1.0" encoding="utf-8"?>
<!-- Generator: Adobe Illustrator 16.0.0, SVG Export Plug-In . SVG Version: 6.00 Build 0)  -->
<!DOCTYPE svg PUBLIC "-//W3C//DTD SVG 1.1//EN" "http://www.w3.org/Graphics/SVG/1.1/DTD/svg11.dtd">
<svg version="1.1" id="Layer_1" xmlns="http://www.w3.org/2000/svg" xmlns:xlink="http://www.w3.org/1999/xlink" x="0px" y="0px"
	 width="84.21px" height="138.67px" viewBox="0 0 84.21 138.67" enable-background="new 0 0 84.21 138.67" xml:space="preserve">
<g>
	<path d="M66.264,108.377c-9.062,0-15.594,4.203-21.158,8.928V-0.001h-6v117.306c-5.565-4.726-12.097-8.928-21.158-8.928
		C6.165,108.377,0,116.192,0,123.912c0,8.414,8.104,14.759,18.853,14.759h0.152c9.623,0,17.095-5.986,23.101-10.809
		c6.006,4.822,13.477,10.809,23.1,10.809h0.152c10.748,0,18.854-6.345,18.854-14.759C84.211,116.192,78.045,108.377,66.264,108.377z
		 M19.004,132.671h-0.152c-7.327,0-12.853-3.766-12.853-8.759c0-6.552,6.193-9.535,11.947-9.535c8.262,0,13.917,4.397,19.547,9.492
		C32.159,128.137,26.135,132.671,19.004,132.671z M65.357,132.671h-0.152c-7.131,0-13.154-4.534-18.488-8.802
		c5.629-5.094,11.283-9.492,19.547-9.492c5.754,0,11.947,2.983,11.947,9.535C78.211,128.905,72.686,132.671,65.357,132.671z"/>
</g>
</svg>
