<?xml version="1.0" encoding="utf-8"?>
<!-- Generator: Adobe Illustrator 16.0.0, SVG Export Plug-In . SVG Version: 6.00 Build 0)  -->
<!DOCTYPE svg PUBLIC "-//W3C//DTD SVG 1.1//EN" "http://www.w3.org/Graphics/SVG/1.1/DTD/svg11.dtd">
<svg version="1.1" id="Layer_1" xmlns="http://www.w3.org/2000/svg" xmlns:xlink="http://www.w3.org/1999/xlink" x="0px" y="0px"
	 width="140.59px" height="69.42px" viewBox="0 0 140.59 69.42" enable-background="new 0 0 140.59 69.42" xml:space="preserve">
<g>
	<circle cx="31.496" cy="48.206" r="21.215"/>
	<circle cx="119.375" cy="48.206" r="21.215"/>
	<path d="M55.008,42.423c0.456,1.855,0.703,3.791,0.703,5.783c0,0.875-0.049,1.739-0.14,2.59h39.729
		c-0.092-0.851-0.141-1.715-0.141-2.59c0-1.992,0.246-3.928,0.703-5.783H55.008z"/>
	<path fill="#BA8E2D" d="M23.305-0.001l-5.712,11.938L0,18.196v23.225h8.255c2.942-10.059,12.244-17.43,23.24-17.43
		c7.184,0,13.645,3.148,18.083,8.133V-0.001H23.305z"/>
</g>
</svg>
