<?xml version="1.0" encoding="utf-8"?>
<!-- Generator: Adobe Illustrator 16.0.4, SVG Export Plug-In . SVG Version: 6.00 Build 0)  -->
<!DOCTYPE svg PUBLIC "-//W3C//DTD SVG 1.1//EN" "http://www.w3.org/Graphics/SVG/1.1/DTD/svg11.dtd">
<svg version="1.1" id="Layer_1" xmlns="http://www.w3.org/2000/svg" xmlns:xlink="http://www.w3.org/1999/xlink" x="0px" y="0px"
	 width="128.234px" height="127.733px" viewBox="0 332.108 128.234 127.733" enable-background="new 0 332.108 128.234 127.733"
	 xml:space="preserve">
<g>
	<path fill="#BA8E2D" d="M115.576,410.31L115.576,410.31c0.55-1.651,0.55-3.303,1.101-4.403c0-0.55,0-1.101,0-1.65
		c0-1.102,0.55-2.202,0.55-2.752c0-1.651,0-3.303,0-4.953c0-1.101,0-1.651,0-2.752l11.007-0.55
		c-0.55-6.604-1.651-12.658-3.853-18.712l-10.457,3.853c-1.101-3.302-2.751-6.604-4.403-9.356l0,0
		c-1.101-1.651-1.651-2.751-2.751-4.403l0,0c-1.101-1.651-2.202-2.751-3.302-3.853l8.255-7.705
		c-4.403-4.953-9.356-8.806-14.86-12.108l-5.503,9.356c-2.202-1.101-3.302-1.651-4.954-2.202l0,0
		c-1.651-0.55-3.302-1.101-4.953-1.651l0,0c-1.651-0.55-3.302-1.101-4.953-1.651l0,0c-1.651-0.55-3.302-0.55-5.503-1.101
		l1.101-11.007c-6.054-1.101-12.658-0.55-19.263,0.55l1.651,11.007c-4.954,0.55-9.907,2.202-14.31,4.953l0,0
		c-1.651,0.55-3.302,1.651-4.953,2.752l0,0l-6.054-9.356c-5.503,3.302-10.457,7.705-14.309,12.658l8.255,7.155
		c-4.403,5.503-8.255,11.557-9.907,18.712l0,0l-10.457-3.853C1.101,383.892,0,389.946,0,396.551l0,0h11.007l0,0
		c0,1.65,0,3.853,0.55,5.503l0,0c0.55,3.853,1.101,7.155,2.201,10.457l0,0c0.551,1.651,1.101,3.302,1.651,4.953l0,0l-9.907,4.403
		c2.752,6.054,6.054,11.558,9.907,16.511l8.255-7.155l0,0c1.101,1.102,2.201,2.752,3.853,3.853l0,0
		c1.101,1.101,2.752,2.202,3.853,3.303l0,0c2.751,2.201,5.503,3.853,8.806,5.503l-4.953,9.907
		c5.503,2.751,12.108,4.953,18.162,6.054l1.651-11.007c1.651,0,2.751,0.55,4.403,0.55c1.651,0,3.302,0,4.953,0
		c2.202,0,3.853,0,6.054-0.55c0,0,0,0,0.55,0c1.651,0,3.853-0.551,5.503-1.102l0,0l2.202,11.008
		c6.054-1.651,12.108-3.853,17.611-7.155l-5.503-9.355l0,0c1.651-1.101,2.751-1.651,4.403-2.752l0,0
		c1.651-1.101,2.751-2.201,3.853-3.303l0,0c1.101-1.101,2.751-2.201,3.853-3.852l0,0c1.101-1.102,2.201-2.752,3.302-3.854l0,0
		l8.806,6.604c3.853-4.953,7.154-11.007,9.356-17.061l-9.907-3.303C115.025,413.062,115.576,411.96,115.576,410.31z"/>
</g>
</svg>
